<svg xmlns="http://www.w3.org/2000/svg" viewBox="0 0 354.61 281.3"><defs><style>.cls-1{isolation:isolate;}.cls-2,.cls-4{fill:#d1e3f1;}.cls-2{opacity:0.6;}.cls-13,.cls-17,.cls-20,.cls-3{fill:#fff;}.cls-20,.cls-3{opacity:0.3;}.cls-3{mix-blend-mode:screen;}.cls-5{fill:#1c47c1;}.cls-6{fill:#0036ac;}.cls-7{fill:#0172d0;}.cls-8{fill:#fda893;}.cls-9{fill:#001f37;}.cls-10{fill:#0c375a;}.cls-11{fill:#005986;}.cls-12{fill:#ededed;}.cls-14{fill:#fd896b;}.cls-15{fill:#d65c48;}.cls-16{fill:#ffce4f;}.cls-17{opacity:0.2;}.cls-18{fill:#fa8a00;}.cls-19{fill:#ffac00;}</style></defs><title>Asset 1</title><g class="cls-1"><g id="Layer_2" data-name="Layer 2"><g id="OBJECTS"><path class="cls-2" d="M328.49,175.52h0a95.21,95.21,0,0,1-13,33.07,96.46,96.46,0,0,1-81.57,44.9h-65a96.33,96.33,0,0,1-69.75-29.88c-.79-.81-1.56-1.65-2.31-2.5a96.57,96.57,0,0,1-24-54.39c0-.13,0-.24,0-.37A167.88,167.88,0,0,1,72,140.05c1-18.54,5.72-34.65,14.76-46.66,10.52-14,27-22.39,50.49-22.65h3c64.81,1,62.66,30.54,115.74,43.51,12.13,3,27.15,5.06,46.51,5.75.44,0,.87,0,1.29.07C330.94,121.81,333.86,147.28,328.49,175.52Z"/><path class="cls-3" d="M303.75,120.07c-18.37,9.59-47.06,19.85-81.62,16.11C169.68,130.5,103.66,119.51,72,140.05c1-18.54,5.72-34.65,14.76-46.66,11.08-2.57,25.17-2.67,43,1.92,38.56,10,88.62,20.84,126.22,18.94,12.13,3,27.15,5.06,46.51,5.75C302.9,120,303.33,120,303.75,120.07Z"/><path class="cls-3" d="M328.48,175.53a95.21,95.21,0,0,1-13,33.07c-13.28,4-30.94,5.47-53.83.47-55.9-12.21-117.21-12-162.51,14.55-.79-.81-1.56-1.65-2.31-2.5A97.4,97.4,0,0,1,75.5,181.6c15.83-7.5,55.48-22.06,106.59-10.4C236,183.5,297.78,193.28,328.48,175.53Z"/><path class="cls-2" d="M0,26.58A4.75,4.75,0,0,0,4.71,31.3H105.55a4.71,4.71,0,0,0,3.32-8,4.65,4.65,0,0,0-3.32-1.38h-4.77a12.28,12.28,0,0,0-20-3.81A17.11,17.11,0,0,0,61.1,10.37a19.52,19.52,0,0,0-36,3.94,12.29,12.29,0,0,0-17.3,7.56h-3A4.72,4.72,0,0,0,0,26.58Z"/><path class="cls-2" d="M240.52,26.25a3,3,0,0,1-.88,2.11,2.94,2.94,0,0,1-2.1.87H173.86a3,3,0,0,1-3-3,3,3,0,0,1,3-3h3a7.76,7.76,0,0,1,12.63-2.4A10.81,10.81,0,0,1,201.93,16a12.32,12.32,0,0,1,22.76,2.49,7.77,7.77,0,0,1,10.93,4.77h1.92A3,3,0,0,1,240.52,26.25Z"/><path class="cls-4" d="M223.93,71.88l.81-4.13L220.87,67a9.31,9.31,0,0,0-.51-3l3.19-2.14-2.35-3.49-3,2.05A9.31,9.31,0,0,0,215,58.27l.76-3.87-4.14-.81-.78,4a8.73,8.73,0,0,0-2.51.49l-2.14-3.19-3.5,2.34,2,3.06a9.41,9.41,0,0,0-2.11,3.13l-3.38-.67-.81,4.14,3.5.68a9.39,9.39,0,0,0,.74,3.19l-3,2L202,76.3l3.19-2.15a9.28,9.28,0,0,0,3.08,1.79l-.77,3.9,4.13.81.83-4.22a9.5,9.5,0,0,0,2.68-.71l2.05,3,3.49-2.34-2.14-3.19a9.34,9.34,0,0,0,1.4-2.15Zm-10.37-1.66a3.86,3.86,0,1,1,1.05-5.35A3.86,3.86,0,0,1,213.56,70.22Z"/><path class="cls-4" d="M67.68,207.37l.81-4.13-3.87-.76a9.87,9.87,0,0,0-.51-3l3.18-2.14L65,193.82l-3.06,2.05a9.41,9.41,0,0,0-3.13-2.11l.76-3.87-4.13-.81-.78,4a9.53,9.53,0,0,0-2.52.49L50,190.37l-3.5,2.35,2.06,3.05a9.25,9.25,0,0,0-2.11,3.14L43,198.24l-.81,4.13,3.5.69a9.7,9.7,0,0,0,.75,3.19L43.4,208.3l2.34,3.49,3.19-2.14A9.38,9.38,0,0,0,52,211.44l-.76,3.89,4.13.81.83-4.22a9.32,9.32,0,0,0,2.67-.7l2,3.05,3.5-2.35-2.15-3.19a9.44,9.44,0,0,0,1.41-2.14ZM57.3,205.72a3.86,3.86,0,1,1,1.05-5.36A3.86,3.86,0,0,1,57.3,205.72Z"/><path class="cls-4" d="M189.62,57.28l.44-2.26-2.12-.42a5,5,0,0,0-.28-1.65l1.75-1.17-1.29-1.91L186.46,51a5.2,5.2,0,0,0-1.72-1.15l.42-2.12-2.26-.44-.43,2.18a4.69,4.69,0,0,0-1.37.27L179.93,48,178,49.27l1.12,1.66A5.3,5.3,0,0,0,178,52.65l-1.85-.37-.45,2.26,1.92.38a4.86,4.86,0,0,0,.41,1.74l-1.67,1.12,1.28,1.91,1.74-1.17a5.23,5.23,0,0,0,1.69,1l-.42,2.13,2.26.44.45-2.31a5.08,5.08,0,0,0,1.46-.38L185.93,61l1.91-1.28L186.67,58a5.26,5.26,0,0,0,.77-1.17ZM184,56.37a2.11,2.11,0,1,1,.57-2.93A2.12,2.12,0,0,1,184,56.37Z"/><path class="cls-4" d="M339.07,82.63l.44-2.26L337.4,80a5.25,5.25,0,0,0-.28-1.65l1.74-1.17-1.28-1.91-1.67,1.12a5.26,5.26,0,0,0-1.71-1.15l.41-2.12-2.26-.44-.42,2.18a5,5,0,0,0-1.38.27l-1.17-1.75-1.91,1.29,1.12,1.67A5.16,5.16,0,0,0,327.44,78l-1.85-.36-.44,2.25,1.91.38a5.32,5.32,0,0,0,.41,1.74l-1.67,1.12L327.08,85l1.75-1.17a5.18,5.18,0,0,0,1.68,1L330.09,87l2.26.44.45-2.31a5,5,0,0,0,1.46-.38l1.12,1.67,1.91-1.29-1.17-1.74a5.26,5.26,0,0,0,.77-1.17Zm-5.67-.91A2.11,2.11,0,1,1,334,78.8,2.12,2.12,0,0,1,333.4,81.72Z"/><path class="cls-2" d="M252.06,49.71a4.4,4.4,0,0,0,4.39,4.39h93.78a4.39,4.39,0,0,0,4.38-4.39,4.4,4.4,0,0,0-4.38-4.38H345.8a11.43,11.43,0,0,0-18.61-3.55,15.9,15.9,0,0,0-18.3-7.15,18.15,18.15,0,0,0-33.52,3.67,11.44,11.44,0,0,0-16.1,7h-2.82A4.4,4.4,0,0,0,252.06,49.71Z"/><ellipse class="cls-2" cx="192.47" cy="271.88" rx="138.37" ry="9.42"/><path class="cls-5" d="M252,157.26c2,9.58-6.39,13.76-2.6,20.37s2.32,14-4.13,15.85-11.3,2.92-10.35,11-5.68,16-11.84,12.49l-4.83-2.72-1.32-.74-.3-.17a14.77,14.77,0,0,1-6.39-18.65c1.22-2.79,3.23-5.08,6.54-5.78,10.36-2.19,2.29-9.45,5.57-16.13,3.78-7.69,11.72-5.56,13.91-11.56C239.3,152.87,250,147.68,252,157.26Z"/><path class="cls-6" d="M243.25,166.58l-25,47.67-1.32-.74,25-47.64a.76.76,0,0,1,1-.32A.77.77,0,0,1,243.25,166.58Z"/><path class="cls-7" d="M271.87,193.35c-2.13,10.26-12.15,10.79-11.25,18.9s-3.68,14.7-10.82,13.81-12.35-2-14.87,6.39-12.38,13.26-17,7.22l-3.58-4.73-1-1.3-.22-.29a15.82,15.82,0,0,1,1.68-21c2.38-2.22,5.34-3.61,8.89-2.88,11.11,2.27,6.28-8.31,12.35-13.47,7-5.95,13.88-.47,18.6-5.43C261.27,183.62,274,183.09,271.87,193.35Z"/><path class="cls-5" d="M259.3,198.77l-44.91,36.17-1-1.3,44.87-36.14a.81.81,0,0,1,1.14.12A.82.82,0,0,1,259.3,198.77Z"/><path class="cls-5" d="M122.6,187.08c-1.18,9.71,7.52,13.17,4.31,20.07s-1.13,14.11,5.46,15.45,11.5,2,11.24,10.09,7,15.42,12.85,11.44c1.46-1,3-2.06,4.58-3.11l1.25-.86.29-.19a14.75,14.75,0,0,0,4.79-19.12c-1.45-2.68-3.65-4.79-7-5.21-10.51-1.3-3.09-9.22-6.92-15.6-4.41-7.34-12.14-4.55-14.83-10.35C134.87,181.63,123.77,177.37,122.6,187.08Z"/><path class="cls-6" d="M132.1,195.62,161,241l1.25-.86-28.91-45.35a.76.76,0,1,0-1.28.81Z"/><path class="cls-7" d="M105.84,224.72c3,10,13,9.72,12.8,17.88s4.91,14.34,12,12.84,12.14-3,15.36,5.12,13.45,12.17,17.5,5.76l3.17-5,.87-1.38.2-.31a15.81,15.81,0,0,0-3.46-20.83c-2.56-2-5.62-3.15-9.1-2.13-10.88,3.2-7-7.74-13.44-12.37-7.47-5.34-13.88.7-19-3.84C115.58,214.13,102.85,214.67,105.84,224.72Z"/><path class="cls-5" d="M118.82,229.06l47.8,32.25.87-1.38-47.76-32.22a.81.81,0,0,0-1.13.22A.82.82,0,0,0,118.82,229.06Z"/><path class="cls-7" d="M168.07,84.05c3.14-12.42,3.81-24.76-2.89-22.64s-7.47,23.37-.88,38.4l1,5.64c-4.61-11-15.46-21.36-20.87-18.84s2.47,8.73,10.59,13.21a33.1,33.1,0,0,1,10.91,9.09l4.81,26.67c-7.35-17.46-24.5-33.74-33.06-29.75s3.92,13.84,16.8,21c9.73,5.38,14.9,11.13,17.26,14.34l1,5.32,2.84-.08-5.72-31.73a36.4,36.4,0,0,1,6.11-9.65c6-7,11.22-15.61,5.3-16.08-5.13-.4-10.71,9.56-12.45,20l-2-11A53.16,53.16,0,0,1,168.07,84.05Z"/><path class="cls-8" d="M321.55,244.1l5.14,6.87A11,11,0,0,1,322,256.4l-6.14-7.9Z"/><path class="cls-7" d="M322.8,254.28s-2.4-.52-3.22.31-2.89,12.13-4.82,14.6,0,3.79,1.2,4.29S334.17,257,334.17,257s-4.21-5.81-6.23-6.94S325,253.08,322.8,254.28Z"/><path class="cls-8" d="M290.06,255.89l-.78,8.54a10.93,10.93,0,0,1-7.16.87l.72-10Z"/><path class="cls-7" d="M283.68,264.1s-1.5-2.08-2.72-2-10.71,7.4-13.93,8-2.64,2.94-2.07,4.16,25.53.52,25.53.52.92-8.05.14-10.35S286.18,264.68,283.68,264.1Z"/><path class="cls-9" d="M294.85,163.2,300,206.12a143.87,143.87,0,0,1,9.09,14.39c3.72,6.78,13.64,24.37,13.64,24.37l-6,4.58L283.9,215.41,277,159.89Z"/><path class="cls-10" d="M315.28,249.35A6.68,6.68,0,0,0,318,252.4l7-5.89a10.46,10.46,0,0,0-2.37-3.22Z"/><path class="cls-10" d="M315.89,163.19s-3.76,24.53-15.79,42.27c0,0-1.79,17.27-4.86,26.46-1.35,4-3.95,23.09-3.95,23.09l-9.13-.41,3.34-51.29,8.67-40.12Z"/><path class="cls-11" d="M281.32,254.28a7.68,7.68,0,0,0,0,4.74l10.55.29a12,12,0,0,0,.44-4.61Z"/><path class="cls-5" d="M285.22,86.85S277,105.42,272.88,112c0,0-2.47,1.42-13.9,7.58-4.05,2.18-5.52,3.06-5.52,3.06L253,129.5s23.84-4.42,29.87-8.77a97.54,97.54,0,0,0,5.44-22.08Z"/><polygon class="cls-7" points="317.3 166.13 317.94 135.44 322.26 89.22 311.69 85.6 311.12 85.41 308.75 84.59 299.99 85.88 295.68 85.45 293.86 85.69 293.22 85.78 285.21 86.85 275.69 163.54 317.3 166.13"/><polygon class="cls-12" points="301.1 94 300.65 140.11 294.06 151.34 290.25 138.83 299.16 94 301.1 94"/><polygon class="cls-13" points="303.12 91.46 299.87 95.55 296.97 89.75 299.99 85.88 303.12 91.46"/><path class="cls-10" d="M314.2,60.53c0,7.34-4.52,12.4-11.86,12.4s-12.47-5.44-12.47-12.79,4.35-12.91,11.7-12.91C310.38,47.23,314.2,53.18,314.2,60.53Z"/><path class="cls-14" d="M312.55,63.69s2.05-2.72,3.56-.47-.63,8.89-4.34,7.27Z"/><path class="cls-15" d="M312.58,68.44a.31.31,0,0,0,.3-.23,4.82,4.82,0,0,1,2.73-2.89.33.33,0,0,0,.18-.41.32.32,0,0,0-.41-.18,5.38,5.38,0,0,0-3.1,3.31.3.3,0,0,0,.22.38Z"/><path class="cls-15" d="M314.73,67.4a.3.3,0,0,0,.17-.05.32.32,0,0,0,.09-.43,2.82,2.82,0,0,0-1.18-1,.31.31,0,0,0-.25.57,2.19,2.19,0,0,1,.9.72A.32.32,0,0,0,314.73,67.4Z"/><path class="cls-14" d="M291.52,63.69s-2-2.72-3.55-.47.62,8.89,4.34,7.27Z"/><path class="cls-15" d="M291.5,68.44a.3.3,0,0,1-.3-.23,4.85,4.85,0,0,0-2.73-2.89.33.33,0,0,1-.18-.41.31.31,0,0,1,.4-.18A5.39,5.39,0,0,1,291.8,68a.3.3,0,0,1-.22.38Z"/><path class="cls-15" d="M289.35,67.4a.26.26,0,0,1-.17-.05.31.31,0,0,1-.09-.43,2.74,2.74,0,0,1,1.18-1,.31.31,0,0,1,.41.16.31.31,0,0,1-.16.41,2.1,2.1,0,0,0-.9.72A.33.33,0,0,1,289.35,67.4Z"/><path class="cls-8" d="M297,76.13v7s1.35,2.88,4,3.11,5.64-2.8,5.64-2.8V76.59Z"/><path class="cls-14" d="M297,76.13v2.93c1.78,2,5,2.48,9.66,1.79V76.59Z"/><path class="cls-8" d="M313.64,63.56c0,.39-.06.77-.1,1.17-.1,1-.23,2-.41,3,0,0,0,.07,0,.1-.89,4.87-2.88,9.66-7.18,11.2-9.74,3.48-13.22-4.88-14.61-9.74-.15-.54-.29-1.15-.42-1.79a.25.25,0,0,0,0-.08c-.14-.72-.25-1.49-.35-2.28-.08-.58-.14-1.18-.2-1.78-.14-1.45-.23-2.91-.29-4.21a6.87,6.87,0,0,1,4.4-6.74c4-1.54,10.06-2.75,15.81.5a6.93,6.93,0,0,1,3.5,5.88C313.79,60.13,313.77,61.79,313.64,63.56Z"/><path class="cls-10" d="M312.44,63.74a59.35,59.35,0,0,1-1.93,6.36c-2.14-2.24-8.47,0-8.47,0s-7.1-2.57-8.38.55c-.81-1.5-1.44-4.71-1.86-6.92l-1.46-.38c.06.6.12,1.2.2,1.78.1.79.21,1.56.35,2.28a.25.25,0,0,1,0,.08c.13.64.27,1.25.42,1.79,1.39,4.86,4.87,13.22,14.61,9.74,4.3-1.54,6.29-6.33,7.18-11.2,0,0,0-.07,0-.1.18-1,.31-2,.41-3,0-.4.07-.78.1-1.17Zm-4.57,10.58A10,10,0,0,1,300,76a8.87,8.87,0,0,1-4.36-2.61c.24-1.52,1.51-2.82,6.62-2.12C308.43,69.71,308.14,73.15,307.87,74.32Z"/><path class="cls-10" d="M305.35,64.08c0,.7.36,1.27.81,1.27s.81-.57.81-1.27-.36-1.28-.81-1.28S305.35,63.37,305.35,64.08Z"/><path class="cls-10" d="M295.93,64.08c0,.7.36,1.27.81,1.27s.81-.57.81-1.27-.36-1.28-.81-1.28S295.93,63.37,295.93,64.08Z"/><path class="cls-10" d="M294.44,59.69a6.92,6.92,0,0,1,4.54-.16l-.2,1.1a12.47,12.47,0,0,0-4.36.35A2,2,0,0,1,294.44,59.69Z"/><path class="cls-10" d="M309.37,59.69a6.9,6.9,0,0,0-4.53-.16l.19,1.1a12.47,12.47,0,0,1,4.36.35A1.91,1.91,0,0,0,309.37,59.69Z"/><path class="cls-14" d="M301.72,69.61a3.07,3.07,0,0,0,1.16-.1.31.31,0,1,0-.17-.6,1.88,1.88,0,0,1-1.26,0,.35.35,0,0,1-.12-.31,46.27,46.27,0,0,1,.77-4.74.31.31,0,1,0-.61-.13,46,46,0,0,0-.79,4.86,1,1,0,0,0,.36.82A1.39,1.39,0,0,0,301.72,69.61Z"/><path class="cls-13" d="M306,71.5c-.25,1.29-1.11,3.66-4,3.66s-3.69-2.17-4-3.66Z"/><path class="cls-10" d="M290.38,63.74h1.42a10.37,10.37,0,0,1,.79-4.3c1-2.61-1.09-3.76.58-5.07s5.84-.74,8.74-.84a63.36,63.36,0,0,1,8.73.21c1.14.26.52,2.16.1,3.62s1.39,3.08,1.7,4.6a6.55,6.55,0,0,1,0,1.78h1.18a48.69,48.69,0,0,0,.14-5,6.9,6.9,0,0,0-3.5-5.87c-5.75-3.26-11.81-2.05-15.81-.51a6.87,6.87,0,0,0-4.4,6.74C290.12,60.56,290.22,62.16,290.38,63.74Z"/><path class="cls-13" d="M296.75,68.45a3.74,3.74,0,1,1,3.74-3.74A3.75,3.75,0,0,1,296.75,68.45Zm0-6.9a3.16,3.16,0,1,0,3.16,3.16A3.17,3.17,0,0,0,296.75,61.55Z"/><path class="cls-13" d="M307,68.45a3.74,3.74,0,1,1,3.74-3.74A3.75,3.75,0,0,1,307,68.45Zm0-6.9a3.16,3.16,0,1,0,3.16,3.16A3.16,3.16,0,0,0,307,61.55Z"/><path class="cls-13" d="M293.64,63.5a.26.26,0,0,1-.2-.08h0a4.6,4.6,0,0,0-3.95-1.15.29.29,0,0,1-.35-.21.28.28,0,0,1,.22-.35A5.12,5.12,0,0,1,293.85,63a.31.31,0,0,1,0,.42A.32.32,0,0,1,293.64,63.5Z"/><path class="cls-13" d="M310.15,63.5a.27.27,0,0,1-.24-.13A.29.29,0,0,1,310,63c.11-.08,2.76-1.78,5-1.41a.29.29,0,0,1-.09.57c-2-.33-4.57,1.31-4.6,1.33A.29.29,0,0,1,310.15,63.5Z"/><path class="cls-13" d="M303.44,63.87a2.37,2.37,0,0,0-1.61-.95,2.18,2.18,0,0,0-1.54.95l-.48-.32a2.69,2.69,0,0,1,2-1.21,2.89,2.89,0,0,1,2.08,1.19Z"/><path class="cls-5" d="M306.68,79.59l1.1,1a4.38,4.38,0,0,1,1,4.24,3,3,0,0,1-.19.49h0l-3.42,9.75L300,85.88S305,84,306.68,79.59Z"/><path class="cls-5" d="M297,80a6.83,6.83,0,0,0-1.78,5.49l.57,5.71L300,85.88S297.4,84.6,297,80Z"/><path class="cls-16" d="M323.11,119a35.91,35.91,0,0,1-45.85,46.86c-.81-.29-1.61-.62-2.39-1a35.81,35.81,0,0,1-9.48-6.24c-.55-.5-1.09-1-1.61-1.57a35.72,35.72,0,0,1-7.56-11.79c-.16-.41-.32-.83-.46-1.25A36,36,0,0,1,290,96.21c.87,0,1.74.05,2.6.13A35.79,35.79,0,0,1,303.51,99c.76.31,1.51.66,2.24,1a35.72,35.72,0,0,1,16.84,17.76C322.77,118.19,322.94,118.6,323.11,119Z"/><path class="cls-17" d="M319.23,111.72l-24.09,55.95a35.83,35.83,0,0,1-9.64.18l27.57-63A35.63,35.63,0,0,1,319.23,111.72Z"/><path class="cls-17" d="M292.64,96.34l-27.25,62.31c-.55-.5-1.09-1-1.61-1.57L290,96.21C290.91,96.22,291.78,96.26,292.64,96.34Z"/><path class="cls-17" d="M305.75,100l-28.49,65.85c-.81-.29-1.61-.62-2.39-1L303.51,99C304.27,99.31,305,99.66,305.75,100Z"/><path class="cls-18" d="M316.39,121.65c.17.41.32.83.46,1.24a28.72,28.72,0,0,1-53.41,21c-.17-.4-.34-.81-.5-1.22a28.71,28.71,0,1,1,53.45-21Z"/><path class="cls-19" d="M316.85,122.89a28.75,28.75,0,0,1-16.68,36l-1,.36a28.57,28.57,0,0,1-19.34-.11c-.77-.28-1.53-.59-2.27-.93a28.73,28.73,0,0,1-9-6.57,27.16,27.16,0,0,1-1.76-2.1,28.76,28.76,0,0,1-3.36-5.66,28.73,28.73,0,0,1,22.19-37.55,27.55,27.55,0,0,1,2.84-.36,28.78,28.78,0,0,1,11.28,1.42c.77.26,1.54.56,2.29.89a28.66,28.66,0,0,1,8,5.18,28.23,28.23,0,0,1,5.84,7.5C316.24,121.58,316.56,122.22,316.85,122.89Z"/><path class="cls-17" d="M315.89,121l-16.68,38.29a28.53,28.53,0,0,1-9.83,1.63l20.67-47.42A28.23,28.23,0,0,1,315.89,121Z"/><path class="cls-17" d="M288.47,106l-19.91,45.67a27.16,27.16,0,0,1-1.76-2.1l18.83-43.21A27.55,27.55,0,0,1,288.47,106Z"/><path class="cls-17" d="M302,108.27l-22.17,50.86c-.77-.28-1.53-.59-2.27-.93l22.15-50.82C300.52,107.64,301.29,107.94,302,108.27Z"/><path class="cls-18" d="M299.34,145.86l1.75,4.44-5.65,2.21-1.66-4.24a25.14,25.14,0,0,1-11.38,1.24l.33-8.07A20.68,20.68,0,0,0,293,140.37c2.68-1.06,3.42-2,3-3-1.38-3.53-15.75,5.4-19.85-5-1.78-4.52,0-9.61,6.21-13.11l-1.71-4.36,5.64-2.22L288,117a22.57,22.57,0,0,1,9-.87l-.15,8a18.5,18.5,0,0,0-8.62,1c-2.76,1.09-3.32,2.23-2.95,3.19,1.32,3.36,15.71-5.52,19.76,4.8C306.76,137.35,305.12,142.34,299.34,145.86Z"/><path class="cls-16" d="M298.6,144.44l1.74,4.44-5.64,2.22L293,146.86a25.27,25.27,0,0,1-11.38,1.24L282,140A20.58,20.58,0,0,0,292.24,139c2.68-1,3.42-2,3-2.95-1.38-3.52-15.75,5.41-19.85-5-1.78-4.52,0-9.61,6.21-13.11l-1.72-4.36,5.64-2.21,1.69,4.28a22.22,22.22,0,0,1,9-.87l-.15,8a18.62,18.62,0,0,0-8.62,1c-2.76,1.08-3.33,2.23-2.95,3.19,1.32,3.36,15.7-5.52,19.76,4.8C306,135.94,304.37,140.93,298.6,144.44Z"/><path class="cls-8" d="M303.5,161.61c-.2-.49.9-2,2-3.4l-.14-.13c-1.72,1.7-4.77,4.52-5.09,3.39-.21-.73,2.32-3.22,3.89-4.67l-.21-.27c-1.9,1.71-5.67,4.91-6,3.62-.2-.86,3.09-3.7,4.82-5.12l-.17-.24c-1.67,1.38-4.95,3.91-5.25,2.62s5-4.78,5-4.78h0l1.8-1.6s-.46-.69-2.2-.21-3.06-.09-1.16-1.19c2.14-1.24,4.39-1.67,5.85-2.58s3.67-.1,3.67-.1l3.74,2.7s-3.49,7-6.95,9.2h0C305.71,160.54,303.84,162.47,303.5,161.61Z"/><path class="cls-7" d="M322.26,89.22s12.37,17.54,14.9,33.45c0,0-1,10.59-23.57,28a8.79,8.79,0,0,1-4.81-4s13.76-15.61,18.29-25.09c0,0-5.32-10.13-10.47-19.82C316.6,101.72,316.88,93.48,322.26,89.22Z"/><path class="cls-14" d="M254.75,123.53l-1.1-1s.1-3.36,1.35-3.94a1,1,0,0,1,1.23.3Z"/><path class="cls-8" d="M248.33,126.08a3.8,3.8,0,0,1,1.12-4.23,3.85,3.85,0,0,1,2.83-.8c3.77.29,6.69,1.72,6.25,3.25-.16.57-2.27.93-3.94.56a14.84,14.84,0,0,0,3.85.72c2,.07,1.6,2.62-.92,2.54a10.92,10.92,0,0,1-2.91-.26,10.49,10.49,0,0,0,3.25.59c1.21-.11,1.29,1.82-1.09,1.91l-2.38.09s1.63.2,2.48.32,1.58,1.09-.11,1.62c-1.33.42-5,1.31-6-.38A47.22,47.22,0,0,1,248.33,126.08Z"/><path class="cls-5" d="M102.19,85.71s10.54,15,15.64,25.92c9,11.51,8.8,18.4,16.59,26.67l-4.24,3.91-15.67-21.4c-.85-1.4-2.25-3.16-3.17-4.76l-8.79-15.31Z"/><path class="cls-10" d="M75.12,52.42A55.07,55.07,0,0,0,69,69.79c-1.34,9.1-1,14.4,8,14.6,7,.16,19.6,2.83,23.59-3.3S75.12,52.42,75.12,52.42Z"/><path class="cls-14" d="M83.62,153.8l-4.75,53.57c-4.1,4.64-8,16.15-9.06,28.51-.56,6.68-2.64,18.07-3.55,22.86,2,1,4,2.18,6,3.23l17.12-42.3,13.94-65.87Z"/><path class="cls-10" d="M76.38,263.7c-1.91-2.11-3.65-3.87-4.32-4.53-.88-.88-3.63-1.26-5.71-1.42h0c-1.22,0-2.4,1.5-2.73,2.58a11.08,11.08,0,0,0-.37,4.59c.32,2.75.8,7,1,10h2.55l.19-7.18s9.37,7.73,14.77,7.15C85.38,274.51,80.51,268.28,76.38,263.7Z"/><path class="cls-14" d="M74,264.86c-3.55-1.33-6.35-5.08-7.67-7.11,2.08.16,4.83.54,5.71,1.42.67.66,2.41,2.42,4.32,4.53C76.34,264.87,75.71,265.5,74,264.86Z"/><path class="cls-8" d="M112.73,265.59c-2.39,1.69-7.56,2-7.56,2l-.92-3.31v0c-.3-.76-10-25-14.52-36.36a67.47,67.47,0,0,1-4.45-23c-7-19.15-14.8-39-14.41-51.16l16.78-6.12,9.63,53.12,14.35,62.25h0Z"/><path class="cls-10" d="M123.51,272.67c-5.15,1.72-16-3.84-16-3.84l1.11,6.06h-2.62s-1.61-4.77-2.73-8a22.86,22.86,0,0,1-.94-7.26l.65-.12c.45-.08,1.09-.19,1.83-.3a21.16,21.16,0,0,1,4.32-.24,4,4,0,0,1,1.35.3l.14.07.07,0c.79.5,2.87,1.85,5.19,3.51C120.93,266.44,127,271.5,123.51,272.67Z"/><path class="cls-8" d="M113.87,264.5c-3.37-.5-8.57-3.23-10.84-5,.45-.08,1.09-.19,1.83-.3a21.26,21.26,0,0,1,4.22-.37,3.16,3.16,0,0,1,1.59.5l.07,0c.79.5,2.87,1.85,5.19,3.51C116.14,264,115.65,264.75,113.87,264.5Z"/><path class="cls-10" d="M70.57,140.29S65.84,162.34,75,198.7c0,0,18.25,2.81,27.21-2.93,1.78-13.05,1.44-45,.79-58.36C103,137.41,83.9,135.64,70.57,140.29Z"/><path class="cls-7" d="M102.9,115.23l.14,22.18c-8.82,7.62-32.47,2.88-32.47,2.88l4.23-20.22L67.09,91.18l5.22-2.63,1-.53h0l2.29-1.15L77.33,86l5.57-2.81,10,1.3,3.47.44,3.08.4,1.19.16,1.53.19.4,16.37a19.35,19.35,0,0,1,2,7.26,7.53,7.53,0,0,1-1.55,4.87h0l0,0-.16.2,0,.74Z"/><path class="cls-8" d="M92.92,84.52a7.19,7.19,0,0,1-6.46,5.28A9.82,9.82,0,0,1,77.33,86l5.57-2.81Z"/><path class="cls-5" d="M102.88,114.44l0,.74v0a46.62,46.62,0,0,1-10.67,2.45,44.59,44.59,0,0,1-8.62.11.45.45,0,0,1-.4-.48.44.44,0,0,1,.48-.41A45.41,45.41,0,0,0,103,114.24Z"/><path class="cls-14" d="M95.69,66.26s1.94-2.59,3.39-.45-.6,8.47-4.14,6.92Z"/><path class="cls-15" d="M95.72,70.78a.29.29,0,0,0,.28-.22,4.61,4.61,0,0,1,2.6-2.75.3.3,0,1,0-.22-.56,5.13,5.13,0,0,0-2.95,3.15.3.3,0,0,0,.2.37Z"/><path class="cls-15" d="M97.76,69.79a.32.32,0,0,0,.16,0,.31.31,0,0,0,.09-.42,2.74,2.74,0,0,0-1.12-.9.3.3,0,0,0-.4.15.3.3,0,0,0,.15.39,2.21,2.21,0,0,1,.87.69A.28.28,0,0,0,97.76,69.79Z"/><path class="cls-14" d="M75.67,66.26s-2-2.59-3.39-.45.6,8.47,4.13,6.92Z"/><path class="cls-15" d="M75.64,70.78a.31.31,0,0,1-.29-.22,4.6,4.6,0,0,0-2.59-2.75.3.3,0,0,1-.17-.39.3.3,0,0,1,.38-.17,5.11,5.11,0,0,1,3,3.15.31.31,0,0,1-.21.37Z"/><path class="cls-15" d="M73.6,69.79a.29.29,0,0,1-.16,0,.31.31,0,0,1-.09-.42,2.66,2.66,0,0,1,1.12-.9.3.3,0,1,1,.24.54,2,2,0,0,0-.86.69A.29.29,0,0,1,73.6,69.79Z"/><path class="cls-8" d="M90.1,78.54v6.52s-2.26,3-4.79,2.76-4.42-3.43-4.42-3.43v-6l2.65-.13Z"/><path class="cls-14" d="M90.1,78.54v3.21c-2.17.94-5.22,1.3-9.21,1V78.36l2.65-.13Z"/><path class="cls-8" d="M74.26,61.94a61.22,61.22,0,0,0,.82,8,17.15,17.15,0,0,0,.39,1.7c1.33,4.63,4.64,12.59,13.91,9.27,4.1-1.46,6-6,6.84-10.66a45.32,45.32,0,0,0,.62-8.61A6.58,6.58,0,0,0,93.51,56c-5.48-3.1-11.25-2-15.06-.48A6.54,6.54,0,0,0,74.26,61.94Z"/><path class="cls-10" d="M90,66.63c0,.67.35,1.21.78,1.21s.77-.54.77-1.21-.35-1.22-.77-1.22S90,66,90,66.63Z"/><path class="cls-10" d="M80.44,66.63c0,.67.35,1.21.78,1.21s.77-.54.77-1.21-.34-1.22-.77-1.22S80.44,66,80.44,66.63Z"/><path class="cls-10" d="M92.07,63a12.41,12.41,0,0,0-3.31-.5.57.57,0,0,0-.57.67h0a.57.57,0,0,0,.59.47,14.59,14.59,0,0,1,4.53.56.93.93,0,0,0-.26-.62A2,2,0,0,0,92.07,63Z"/><path class="cls-10" d="M79.57,63a13.29,13.29,0,0,1,3.31-.5.57.57,0,0,1,.57.68h0a.57.57,0,0,1-.59.47,14.24,14.24,0,0,0-4.53.55.89.89,0,0,1,.26-.61A2,2,0,0,1,79.57,63Z"/><path class="cls-14" d="M85.57,72.18a1.31,1.31,0,0,0,.65-.16.9.9,0,0,0,.44-.73,45.93,45.93,0,0,0-.18-4.69.29.29,0,0,0-.32-.27.3.3,0,0,0-.28.32,42.86,42.86,0,0,1,.18,4.58.33.33,0,0,1-.14.28c-.28.17-.93,0-1.2-.12a.3.3,0,0,0-.23.56A3.24,3.24,0,0,0,85.57,72.18Z"/><path class="cls-13" d="M89.37,74.06a3.56,3.56,0,0,1-3.51,3.23c-2.53,0-3.25-1.91-3.49-3.23Z"/><path class="cls-14" d="M85.9,79a3.08,3.08,0,0,0,1.4-.41.31.31,0,0,0,.1-.42.29.29,0,0,0-.41-.09h0a2.48,2.48,0,0,1-1.09.32,2.66,2.66,0,0,1-1.15-.32.3.3,0,0,0-.41.1.31.31,0,0,0,.1.41A3.26,3.26,0,0,0,85.9,79Z"/><path class="cls-10" d="M73.06,61.45a.94.94,0,0,0,.72.55,19.27,19.27,0,0,0,.1,2.22c.37,4.32,1.46,5.08,1.71,4a50.13,50.13,0,0,0,.07-6.11,12.45,12.45,0,0,0,1.59-.2l1-4.19.35,4.14c1.5.52,5-.31,5-.31l1.18-4.14.72,4a8.4,8.4,0,0,0,5.08.37l.65-4.29,1.49,4.29s4.81,1.72,4.86,0a32.62,32.62,0,0,0-1.32-6A9.1,9.1,0,0,0,91.9,50.2,15.94,15.94,0,0,0,77.46,50C72.87,52.73,73.06,61.45,73.06,61.45Z"/><path class="cls-10" d="M94.8,52.74a27.77,27.77,0,0,1,5.41,13.12c1.3,8.41,3.1,14.63-2,17.41-5.48,3-5.86-2.11-5.78-3.79s5.6-7.3,2.48-20.2C93.94,55.11,94.8,52.74,94.8,52.74Z"/><path class="cls-13" d="M74.19,72.88a.7.7,0,1,0,.7-.7A.7.7,0,0,0,74.19,72.88Z"/><path class="cls-16" d="M130.65,117a35.93,35.93,0,0,1-28,48.66,35.43,35.43,0,0,1-9.64.18,36.06,36.06,0,0,1-8.23-2c-.81-.3-1.61-.63-2.4-1a35.84,35.84,0,0,1-9.48-6.25c-.55-.5-1.09-1-1.61-1.56a35.87,35.87,0,0,1-7.56-11.8c-.16-.41-.31-.83-.46-1.25A35.94,35.94,0,0,1,97.59,94.25c.86,0,1.73,0,2.59.12A35.79,35.79,0,0,1,111.05,97c.76.32,1.51.66,2.25,1a36.12,36.12,0,0,1,7.31,4.85,35.63,35.63,0,0,1,6.16,6.84,36.34,36.34,0,0,1,3.37,6.06Q130.41,116.43,130.65,117Z"/><path class="cls-20" d="M126.77,109.75,102.68,165.7a35.43,35.43,0,0,1-9.64.18l27.57-63A35.63,35.63,0,0,1,126.77,109.75Z"/><path class="cls-20" d="M100.18,94.37,72.93,156.68c-.55-.5-1.09-1-1.61-1.56L97.59,94.25C98.45,94.26,99.32,94.3,100.18,94.37Z"/><path class="cls-20" d="M113.3,98.06,84.81,163.91c-.81-.3-1.61-.63-2.4-1L111.05,97C111.81,97.35,112.56,97.69,113.3,98.06Z"/><path class="cls-18" d="M123.94,119.68c.16.41.31.83.45,1.24a28.72,28.72,0,0,1-53.4,21c-.18-.4-.35-.8-.51-1.21a28.72,28.72,0,0,1,53.46-21Z"/><path class="cls-19" d="M124.39,120.92a28.74,28.74,0,0,1-16.68,36l-1,.36a28.65,28.65,0,0,1-19.34-.1c-.77-.28-1.52-.59-2.27-.94a28.69,28.69,0,0,1-9-6.57c-.62-.66-1.21-1.37-1.77-2.1A28,28,0,0,1,71,141.9a28.74,28.74,0,0,1,16.68-36,28.18,28.18,0,0,1,5.51-1.56c.94-.16,1.89-.28,2.83-.35a28.59,28.59,0,0,1,11.28,1.42c.77.26,1.54.55,2.29.88A28.62,28.62,0,0,1,123.44,119C123.78,119.61,124.1,120.26,124.39,120.92Z"/><path class="cls-17" d="M123.44,119l-16.69,38.29a28.53,28.53,0,0,1-9.83,1.63l20.67-47.42A28.63,28.63,0,0,1,123.44,119Z"/><path class="cls-17" d="M96,104l-19.9,45.66c-.62-.66-1.21-1.37-1.77-2.1l18.84-43.21C94.12,104.19,95.07,104.07,96,104Z"/><path class="cls-17" d="M109.58,106.3,87.41,157.17c-.77-.28-1.52-.59-2.27-.94l22.15-50.81C108.06,105.68,108.83,106,109.58,106.3Z"/><path class="cls-18" d="M106.88,143.89l1.75,4.44L103,150.55l-1.67-4.24a25.41,25.41,0,0,1-11.38,1.24l.34-8.08a20.65,20.65,0,0,0,10.24-1.07c2.68-1.05,3.42-2,3-3-1.39-3.52-15.75,5.4-19.86-5-1.77-4.52,0-9.61,6.21-13.11l-1.71-4.36,5.64-2.22L95.53,115a22.61,22.61,0,0,1,9-.87l-.16,8a18.45,18.45,0,0,0-8.61,1c-2.76,1.08-3.33,2.23-3,3.19,1.32,3.36,15.7-5.53,19.76,4.79C114.3,135.39,112.66,140.37,106.88,143.89Z"/><path class="cls-16" d="M106.14,142.48l1.74,4.44-5.64,2.21-1.66-4.24a25.31,25.31,0,0,1-11.39,1.24l.34-8.07A20.69,20.69,0,0,0,99.78,137c2.68-1.06,3.42-2,3-3-1.38-3.52-15.75,5.41-19.85-5-1.78-4.53,0-9.61,6.21-13.11l-1.71-4.36,5.64-2.22,1.68,4.28a22.57,22.57,0,0,1,9-.87l-.15,8a18.5,18.5,0,0,0-8.62,1c-2.76,1.09-3.33,2.23-3,3.19,1.32,3.36,15.71-5.52,19.76,4.8C113.56,134,111.92,139,106.14,142.48Z"/><path class="cls-8" d="M88.61,165.66c.62-1-1.71-2.14-2.5-3.35s-2.34-4.65-1.57-4.92A10.75,10.75,0,0,1,87,157c.68-.07,1.56-.85,1.07-1.25s-2.67-.53-3.68-.35c-.36.07-1.17.48-1.66.66a3.1,3.1,0,0,1-2.24.06c-.28-1-.57-2-.81-2.55-1-.43-5.32.13-5.54,2.37a30.4,30.4,0,0,0,.8,3.47c2.33,6.32,5,7.47,6.11,8a1.59,1.59,0,0,0,1.88-.51,1.4,1.4,0,0,0,1.6-.66c1.72.41,2-.73,2-.73S88,166.68,88.61,165.66Z"/><path class="cls-7" d="M75.62,98.7c-1.84,14.1-2.85,23.28-3.27,26.09,0,.14,0,.26-.06.37,0,.27-.07.41-.07.41l-2.13.72-.37.12h0l-5,1.69c-.08-.23-.15-.48-.22-.73-2.66-9.52,2.62-36.21,2.62-36.21C72.64,88.68,75.62,98.7,75.62,98.7Z"/><path class="cls-7" d="M80.2,154.56a11.41,11.41,0,0,1-6.12,2.61c-5.32-12.53-8.6-20.88-9.61-29.79l3.35-.78,1.15-.27h0l3.25-.76.11.33c0,.13.1.28.16.48.65,2,2.43,7.88,4,14.1C78.31,148.15,80.2,154.56,80.2,154.56Z"/><path class="cls-5" d="M72.22,125.57l.11.33c-1,.16-1.88.35-2.61.51h0l-1.38.32-.13,0a.51.51,0,0,1-.38-.16.58.58,0,0,1-.15-.25.55.55,0,0,1,.4-.66c.13,0,2.17-.55,4.28-.9,0,.14,0,.26-.06.37C72.25,125.43,72.22,125.57,72.22,125.57Z"/><path class="cls-14" d="M132.43,137.84l1.4-.4s1.33-3.08.44-4.14a1,1,0,0,0-1.24-.25Z"/><path class="cls-8" d="M137.18,142.86a3.81,3.81,0,0,0,.77-4.3,3.86,3.86,0,0,0-2.23-1.93c-3.54-1.33-6.79-1.26-7,.31-.09.59,1.67,1.8,3.34,2.17a15.18,15.18,0,0,1-3.8-1c-1.84-.78-2.55,1.69-.24,2.69a11.26,11.26,0,0,0,2.75,1,10.63,10.63,0,0,1-3.2-.84c-1-.61-1.93,1.1.19,2.2,1,.51,2.12,1.08,2.12,1.08l-2.39-.76c-.81-.25-1.88.32-.58,1.52,1,.94,4,3.3,5.6,2.19A49.23,49.23,0,0,0,137.18,142.86Z"/><path class="cls-7" d="M244.94,62.45a3.89,3.89,0,1,1,3.89-3.89A3.89,3.89,0,0,1,244.94,62.45Zm0-6.56a2.67,2.67,0,1,0,2.67,2.67A2.67,2.67,0,0,0,244.94,55.89Z"/><path class="cls-19" d="M258.94,76.1a3.89,3.89,0,1,1,3.89-3.89A3.89,3.89,0,0,1,258.94,76.1Zm0-6.56a2.67,2.67,0,1,0,2.67,2.67A2.68,2.68,0,0,0,258.94,69.54Z"/><path class="cls-7" d="M263.75,88.74a.61.61,0,0,1-.61-.61V85.44a.61.61,0,0,1,.61-.61.61.61,0,0,1,.61.61v2.69A.61.61,0,0,1,263.75,88.74Z"/><path class="cls-7" d="M263.75,93.45a.61.61,0,0,1-.61-.61V90.15a.61.61,0,0,1,.61-.61.61.61,0,0,1,.61.61v2.69A.61.61,0,0,1,263.75,93.45Z"/><path class="cls-7" d="M267.52,89.75h-2.41a.61.61,0,0,1-.61-.61.61.61,0,0,1,.61-.61h2.41a.62.62,0,0,1,.62.61A.61.61,0,0,1,267.52,89.75Z"/><path class="cls-7" d="M262.39,89.75H260a.61.61,0,0,1-.61-.61.61.61,0,0,1,.61-.61h2.42a.62.62,0,0,1,.61.61A.61.61,0,0,1,262.39,89.75Z"/><path class="cls-19" d="M242.27,73.66a.61.61,0,0,1-.61-.61V70.36a.61.61,0,0,1,.61-.61.62.62,0,0,1,.61.61v2.69A.61.61,0,0,1,242.27,73.66Z"/><path class="cls-19" d="M242.27,78.37a.61.61,0,0,1-.61-.61V75.07a.61.61,0,0,1,.61-.61.62.62,0,0,1,.61.61v2.69A.61.61,0,0,1,242.27,78.37Z"/><path class="cls-19" d="M246,74.67h-2.41a.61.61,0,0,1-.61-.61.61.61,0,0,1,.61-.61H246a.61.61,0,0,1,.61.61A.61.61,0,0,1,246,74.67Z"/><path class="cls-19" d="M240.91,74.67h-2.42a.61.61,0,0,1-.61-.61.61.61,0,0,1,.61-.61h2.42a.62.62,0,0,1,.61.61A.61.61,0,0,1,240.91,74.67Z"/><path class="cls-7" d="M122.57,43.43a3.89,3.89,0,1,1,3.89-3.89A3.89,3.89,0,0,1,122.57,43.43Zm0-1.22a2.67,2.67,0,1,0-2.67-2.67A2.67,2.67,0,0,0,122.57,42.21Z"/><path class="cls-19" d="M131.84,59.4a3.89,3.89,0,1,1,3.89-3.89A3.89,3.89,0,0,1,131.84,59.4Zm0-1.22a2.67,2.67,0,1,0-2.67-2.67A2.68,2.68,0,0,0,131.84,58.18Z"/><path class="cls-7" d="M148.13,62.16a.61.61,0,0,0-.61-.61h-2.7a.61.61,0,1,0,0,1.22h2.7A.61.61,0,0,0,148.13,62.16Z"/><path class="cls-7" d="M152.84,62.16a.61.61,0,0,0-.62-.61h-2.69a.61.61,0,0,0,0,1.22h2.69A.61.61,0,0,0,152.84,62.16Z"/><path class="cls-7" d="M149.13,65.94V63.52a.61.61,0,0,0-.61-.61.61.61,0,0,0-.61.61v2.42a.62.62,0,0,0,.61.61A.61.61,0,0,0,149.13,65.94Z"/><path class="cls-7" d="M149.13,60.8V58.38a.61.61,0,0,0-.61-.61.61.61,0,0,0-.61.61V60.8a.61.61,0,0,0,.61.61A.61.61,0,0,0,149.13,60.8Z"/><path class="cls-19" d="M111.57,51.62A.61.61,0,0,0,111,51h-2.69a.61.61,0,0,0-.61.61.61.61,0,0,0,.61.61H111A.61.61,0,0,0,111.57,51.62Z"/><path class="cls-19" d="M116.28,51.62a.61.61,0,0,0-.61-.61H113a.61.61,0,0,0-.61.61.61.61,0,0,0,.61.61h2.69A.61.61,0,0,0,116.28,51.62Z"/><path class="cls-19" d="M112.58,55.4V53a.61.61,0,0,0-1.22,0V55.4a.61.61,0,0,0,1.22,0Z"/><path class="cls-19" d="M112.58,50.26V47.84a.61.61,0,1,0-1.22,0v2.42a.61.61,0,0,0,1.22,0Z"/><path class="cls-19" d="M224,266.49a.34.34,0,0,1,0,.1,5,5,0,0,1-1.94,3.65,9.86,9.86,0,0,1-1,.82,20.83,20.83,0,0,1-3.86,2.12l-1,.42c-1.17.46-2.47.9-3.86,1.3l-1,.28c-1.22.33-2.51.63-3.86.91l-1,.2c-1.24.23-2.53.44-3.86.63l-1,.14c-1.25.16-2.54.31-3.86.43l-1,.09c-1.26.1-2.55.18-3.86.24l-1,.05c-1.27,0-2.55.07-3.86.08h-1c-1.3,0-2.59,0-3.86-.07l-1,0c-1,0-1.92-.1-2.86-.16l-1-.08-1-.08c-1.32-.12-2.61-.26-3.86-.42l-1-.13c-.8-.11-1.58-.23-2.35-.36l-1.51-.26-1-.2c-1.35-.26-2.64-.56-3.86-.88l-.72-.19-.3-.08-1.61-.48c-.79-.25-1.54-.52-2.25-.79l-1-.4a23.77,23.77,0,0,1-3.43-1.75l-.43-.28-.51-.36c-.18-.14-.35-.27-.51-.41a5.3,5.3,0,0,1-2.28-3.94c0-.1,0-.19,0-.29v-7.85H224l0,8.15Z"/><path class="cls-18" d="M153.72,258.44V271.3l-.51-.36c-.18-.14-.35-.27-.51-.41V258.45Z"/><path class="cls-18" d="M158.6,258.44v15.29l-1-.4V258.44Z"/><path class="cls-18" d="M163.48,258.43v16.84l-.72-.19-.3-.08V258.43Z"/><path class="cls-18" d="M168.36,258.42v17.93l-1-.2V258.42Z"/><path class="cls-18" d="M173.24,258.42V277.1l-1-.13V258.42Z"/><path class="cls-18" d="M178.12,258.41V277.6l-1-.08V258.41Z"/><path class="cls-18" d="M183,258.4v19.48l-1,0V258.4Z"/><path class="cls-18" d="M187.88,258.39V278h-1V258.4Z"/><path class="cls-18" d="M192.76,258.39v19.43l-1,.05V258.39Z"/><path class="cls-18" d="M197.64,258.38v19.11l-1,.09v-19.2Z"/><path class="cls-18" d="M202.52,258.37v18.55l-1,.14V258.37Z"/><path class="cls-18" d="M207.4,258.37v17.72l-1,.2V258.37Z"/><path class="cls-18" d="M212.28,258.36V274.9l-1,.28V258.36Z"/><path class="cls-18" d="M217.16,258.35v14.83l-1,.42V258.35Z"/><path class="cls-18" d="M222,258.34v11.9a9.86,9.86,0,0,1-1,.82V258.34Z"/><path class="cls-16" d="M224,258.44c0,5.77-16.46,10.44-36.77,10.44-2.77,0-5.48-.09-8.08-.25-3.26-.21-6.37-.54-9.24-1-2.57-.39-4.95-.86-7.11-1.41-.66-.16-1.3-.34-1.91-.52a30.1,30.1,0,0,1-6.69-2.69c-.34-.2-.66-.4-.95-.6-1.8-1.23-2.79-2.58-2.79-4a2.56,2.56,0,0,1,0-.39c.72-5.58,16.89-10.05,36.74-10.05a121.69,121.69,0,0,1,13.81.76c.82.09,1.63.2,2.42.31a74.35,74.35,0,0,1,9.36,1.87c.61.17,1.19.34,1.75.52a30.14,30.14,0,0,1,5.16,2.09,10.71,10.71,0,0,1,3.3,2.51,4,4,0,0,1,.94,2A2.56,2.56,0,0,1,224,258.44Z"/><path class="cls-20" d="M223,256.06l-43.88,12.57c-3.26-.21-6.37-.54-9.24-1l49.82-14.1A10.71,10.71,0,0,1,223,256.06Z"/><path class="cls-20" d="M203.43,249.07l-49.26,14c-.34-.2-.66-.4-.95-.6L201,248.76C201.83,248.85,202.64,249,203.43,249.07Z"/><path class="cls-20" d="M214.54,251.46l-51.77,14.78c-.66-.16-1.3-.34-1.91-.52l51.93-14.78C213.4,251.11,214,251.28,214.54,251.46Z"/><path class="cls-18" d="M216.59,258.44a2.34,2.34,0,0,1,0,.38c-.71,4.43-13.61,8-29.36,8s-28.65-3.54-29.36-8c0-.12,0-.25,0-.38,0-4.6,13.19-8.35,29.39-8.35S216.59,253.84,216.59,258.44Z"/><path class="cls-19" d="M216.56,258.82c-.71,4.43-13.61,8-29.36,8h-1a96.63,96.63,0,0,1-10-.6,66.44,66.44,0,0,1-8.41-1.48c-.62-.16-1.23-.32-1.81-.5a20.8,20.8,0,0,1-6.14-2.73,7.81,7.81,0,0,1-.9-.76,3.51,3.51,0,0,1-1.08-1.89c.71-4.42,13.61-8,29.36-8,2,0,3.94.06,5.83.17,1,.05,1.9.12,2.83.2a72.1,72.1,0,0,1,10.21,1.58l1.85.48a25.66,25.66,0,0,1,5.69,2.26,6.26,6.26,0,0,1,2.76,2.65A2.34,2.34,0,0,1,216.56,258.82Z"/><path class="cls-17" d="M216.37,258.2l-30.22,8.58a96.63,96.63,0,0,1-10-.6l37.43-10.63A6.26,6.26,0,0,1,216.37,258.2Z"/><path class="cls-17" d="M195.86,251.23l-36,10.24a7.81,7.81,0,0,1-.9-.76L193,251C194,251.08,194.93,251.15,195.86,251.23Z"/><path class="cls-17" d="M207.92,253.29,167.77,264.7c-.62-.16-1.23-.32-1.81-.5l40.11-11.39Z"/><path class="cls-18" d="M191.29,263.18v1.38h-6.2v-1.32a80.69,80.69,0,0,1-11.31-.88l3.34-2.15a65.93,65.93,0,0,0,10.16.8c2.95,0,4-.17,4-.47,0-1.1-17-.21-17-3.47,0-1.41,3.6-2.6,10.82-2.89v-1.36h6.2v1.34a70.52,70.52,0,0,1,8.93.72L197.09,257a59.74,59.74,0,0,0-8.57-.65c-3,0-4,.25-4,.55,0,1.05,17,.17,17,3.39C201.54,261.66,198.11,262.84,191.29,263.18Z"/><path class="cls-16" d="M191.11,262.71v1.39h-6.2v-1.32a82.25,82.25,0,0,1-11.31-.88l3.34-2.15a65.93,65.93,0,0,0,10.16.8c3,0,4-.17,4-.47,0-1.1-17-.21-17-3.47,0-1.42,3.61-2.6,10.83-2.89v-1.36h6.2v1.33a72.28,72.28,0,0,1,8.93.73l-3.13,2.14a59.74,59.74,0,0,0-8.57-.65c-3,0-4,.25-4,.55,0,1,17,.17,17,3.39C201.36,261.2,197.92,262.38,191.11,262.71Z"/><path class="cls-19" d="M226.29,253.61v.1a5,5,0,0,1-1.94,3.65,9.86,9.86,0,0,1-1,.82,20.83,20.83,0,0,1-3.86,2.12l-1,.42c-1.17.46-2.47.9-3.86,1.3l-1,.28c-1.22.33-2.51.63-3.86.91l-1,.2c-1.24.23-2.53.44-3.86.63l-1,.14c-1.25.16-2.54.31-3.86.43l-1,.08c-1.26.11-2.55.19-3.86.25l-1,.05c-1.27,0-2.55.07-3.86.08h-1c-1.3,0-2.59,0-3.86-.07l-1,0c-1,0-1.92-.1-2.86-.16l-1-.08-1-.08c-1.32-.12-2.61-.26-3.86-.42l-1-.13c-.8-.11-1.58-.23-2.35-.36l-1.51-.26-1-.2c-1.35-.26-2.64-.56-3.86-.88l-.72-.19-.3-.08-1.61-.48c-.79-.25-1.54-.52-2.25-.79l-1-.4a23.77,23.77,0,0,1-3.43-1.75l-.43-.28-.51-.36c-.18-.14-.35-.27-.51-.41a5.3,5.3,0,0,1-2.28-3.94,2.83,2.83,0,0,1,0-.29v-7.85h73.52l0,8.15Z"/><path class="cls-18" d="M156,245.56v12.86l-.51-.36c-.18-.14-.35-.27-.51-.41V245.57Z"/><path class="cls-18" d="M160.91,245.56v15.29l-1-.4V245.56Z"/><path class="cls-18" d="M165.79,245.55v16.84l-.72-.19-.3-.08V245.55Z"/><path class="cls-18" d="M170.67,245.54v17.93l-1-.2V245.54Z"/><path class="cls-18" d="M175.55,245.54v18.68l-1-.13V245.54Z"/><path class="cls-18" d="M180.43,245.53v19.19l-1-.08V245.53Z"/><path class="cls-18" d="M185.31,245.52V265l-1,0V245.52Z"/><path class="cls-18" d="M190.19,245.51v19.56h-1V245.52Z"/><path class="cls-18" d="M195.07,245.51v19.43l-1,.05V245.51Z"/><path class="cls-18" d="M200,245.5v19.11l-1,.08V245.5Z"/><path class="cls-18" d="M204.83,245.49V264l-1,.14V245.49Z"/><path class="cls-18" d="M209.71,245.48v17.73l-1,.2V245.49Z"/><path class="cls-18" d="M214.59,245.48V262l-1,.28V245.48Z"/><path class="cls-18" d="M219.47,245.47V260.3l-1,.42V245.47Z"/><path class="cls-18" d="M224.35,245.46v11.9a9.86,9.86,0,0,1-1,.82V245.46Z"/><path class="cls-16" d="M226.28,245.56c0,5.77-16.46,10.44-36.77,10.44-2.77,0-5.48-.09-8.07-.25-3.27-.21-6.38-.54-9.25-1-2.57-.39-4.95-.86-7.11-1.41-.66-.16-1.3-.34-1.91-.52a30.8,30.8,0,0,1-6.69-2.69c-.34-.2-.66-.4-.95-.6-1.8-1.23-2.79-2.58-2.79-4a2.56,2.56,0,0,1,0-.39c.72-5.59,16.89-10,36.74-10a121.69,121.69,0,0,1,13.81.76c.82.09,1.63.2,2.43.31a74.53,74.53,0,0,1,9.35,1.87c.61.17,1.19.34,1.76.52a30.35,30.35,0,0,1,5.15,2.09,10.85,10.85,0,0,1,3.3,2.5,4,4,0,0,1,.94,2A2.56,2.56,0,0,1,226.28,245.56Z"/><path class="cls-20" d="M225.31,243.17l-43.87,12.58c-3.27-.21-6.38-.54-9.25-1L222,240.67A10.85,10.85,0,0,1,225.31,243.17Z"/><path class="cls-20" d="M205.75,236.19l-49.27,14c-.34-.2-.66-.4-.95-.6l47.79-13.67C204.14,236,205,236.08,205.75,236.19Z"/><path class="cls-20" d="M216.86,238.58l-51.78,14.78c-.66-.16-1.3-.34-1.91-.52l51.93-14.78C215.71,238.23,216.29,238.4,216.86,238.58Z"/><path class="cls-18" d="M218.9,245.56a2.34,2.34,0,0,1,0,.38c-.71,4.43-13.6,8-29.36,8s-28.65-3.54-29.36-8c0-.12,0-.25,0-.38,0-4.6,13.18-8.35,29.38-8.35S218.9,241,218.9,245.56Z"/><path class="cls-19" d="M218.87,245.94c-.71,4.43-13.6,8-29.36,8h-1a99.52,99.52,0,0,1-10-.6,66.44,66.44,0,0,1-8.41-1.48c-.62-.16-1.23-.32-1.81-.5a20.8,20.8,0,0,1-6.14-2.73,7.81,7.81,0,0,1-.9-.76,3.58,3.58,0,0,1-1.08-1.89c.71-4.42,13.61-8,29.36-8,2,0,3.94.06,5.83.16,1,.06,1.9.13,2.83.21a72.1,72.1,0,0,1,10.21,1.58c.64.15,1.26.32,1.85.48a25.66,25.66,0,0,1,5.69,2.26,6.29,6.29,0,0,1,2.77,2.65A2.31,2.31,0,0,1,218.87,245.94Z"/><path class="cls-17" d="M218.69,245.32l-30.23,8.58a99.52,99.52,0,0,1-10-.6l37.43-10.63A6.29,6.29,0,0,1,218.69,245.32Z"/><path class="cls-17" d="M198.17,238.35l-36,10.24a7.81,7.81,0,0,1-.9-.76l34.11-9.69C196.3,238.2,197.24,238.27,198.17,238.35Z"/><path class="cls-17" d="M210.23,240.41l-40.15,11.41c-.62-.16-1.23-.32-1.81-.5l40.11-11.39C209,240.08,209.64,240.25,210.23,240.41Z"/><path class="cls-18" d="M193.6,250.29v1.39h-6.2v-1.32a82.25,82.25,0,0,1-11.31-.88l3.35-2.15a65.73,65.73,0,0,0,10.16.8c2.94,0,4-.17,4-.47,0-1.1-17-.21-17-3.47,0-1.42,3.6-2.6,10.82-2.89v-1.36h6.2v1.34a70.52,70.52,0,0,1,8.93.72l-3.13,2.14a59.74,59.74,0,0,0-8.57-.65c-3,0-4,.25-4,.55,0,1.05,17,.17,17,3.39C203.85,248.78,200.42,250,193.6,250.29Z"/><path class="cls-16" d="M193.42,249.83v1.39h-6.2V249.9a82.25,82.25,0,0,1-11.31-.88l3.34-2.15a66,66,0,0,0,10.17.8c2.94,0,4-.17,4-.47,0-1.1-17-.21-17-3.48,0-1.41,3.6-2.59,10.82-2.88v-1.36h6.2v1.33a72.28,72.28,0,0,1,8.93.73l-3.13,2.13a61.13,61.13,0,0,0-8.57-.64c-3,0-4,.25-4,.55,0,1,17,.17,17,3.39C203.67,248.32,200.24,249.5,193.42,249.83Z"/><path class="cls-19" d="M226,240.73v.1a5,5,0,0,1-1.93,3.64,10.8,10.8,0,0,1-1,.83,21.16,21.16,0,0,1-3.86,2.12l-1,.42c-1.18.46-2.47.9-3.86,1.3l-1,.28c-1.22.33-2.51.63-3.87.91l-1,.19c-1.24.24-2.53.45-3.87.64l-1,.14c-1.26.16-2.55.31-3.87.43l-1,.08c-1.27.11-2.56.19-3.87.25l-1,.05c-1.27,0-2.56.07-3.87.08h-1c-1.31,0-2.6,0-3.87-.07l-1,0c-1,0-1.92-.1-2.86-.16l-1-.08-1-.08c-1.32-.12-2.6-.26-3.86-.42l-1-.13c-.8-.11-1.58-.23-2.35-.36l-1.51-.26-1-.2c-1.35-.26-2.64-.56-3.86-.88l-.72-.19-.3-.08-1.61-.48c-.79-.26-1.54-.52-2.25-.79l-1-.4a23.12,23.12,0,0,1-3.42-1.75l-.44-.28c-.18-.12-.35-.24-.51-.37s-.35-.26-.51-.4a5.3,5.3,0,0,1-2.28-3.94,2.83,2.83,0,0,1,0-.29v-7.85h73.53v8.15Z"/><path class="cls-18" d="M155.69,232.68v12.86c-.18-.12-.35-.24-.51-.37s-.35-.26-.51-.4V232.69Z"/><path class="cls-18" d="M160.57,232.68V248l-1-.4V232.68Z"/><path class="cls-18" d="M165.45,232.67v16.84l-.72-.19-.3-.08V232.67Z"/><path class="cls-18" d="M170.33,232.66v17.93l-1-.2V232.66Z"/><path class="cls-18" d="M175.21,232.65v18.69l-1-.13V232.66Z"/><path class="cls-18" d="M180.09,232.65v19.19l-1-.08V232.65Z"/><path class="cls-18" d="M185,232.64v19.48l-1,0V232.64Z"/><path class="cls-18" d="M189.85,232.63v19.56h-1V232.63Z"/><path class="cls-18" d="M194.73,232.63v19.43l-1,.05V232.63Z"/><path class="cls-18" d="M199.61,232.62v19.11l-1,.08V232.62Z"/><path class="cls-18" d="M204.49,232.61v18.55l-1,.14V232.61Z"/><path class="cls-18" d="M209.37,232.6v17.73l-1,.19V232.61Z"/><path class="cls-18" d="M214.26,232.6v16.54l-1,.28V232.6Z"/><path class="cls-18" d="M219.14,232.59v14.83l-1,.42V232.59Z"/><path class="cls-18" d="M224,232.58v11.89a10.8,10.8,0,0,1-1,.83V232.58Z"/><path class="cls-16" d="M225.94,232.68c0,5.77-16.46,10.44-36.77,10.44-2.77,0-5.47-.09-8.07-.25-3.27-.21-6.37-.54-9.25-1-2.57-.39-4.95-.86-7.11-1.41-.65-.16-1.29-.34-1.91-.52a30.8,30.8,0,0,1-6.69-2.69c-.34-.2-.65-.4-.95-.6-1.79-1.23-2.78-2.58-2.78-4a2.56,2.56,0,0,1,0-.39c.71-5.59,16.89-10,36.73-10A121.69,121.69,0,0,1,203,223c.83.09,1.64.2,2.43.31a74.71,74.71,0,0,1,9.36,1.87c.6.17,1.19.34,1.75.52a30.35,30.35,0,0,1,5.15,2.09,11,11,0,0,1,3.31,2.5,3.92,3.92,0,0,1,.93,2A2.56,2.56,0,0,1,225.94,232.68Z"/><path class="cls-20" d="M225,230.29,181.1,242.87c-3.27-.21-6.37-.54-9.25-1l49.82-14.1A11,11,0,0,1,225,230.29Z"/><path class="cls-20" d="M205.41,223.31l-49.27,14c-.34-.2-.65-.4-.95-.6L203,223C203.81,223.09,204.62,223.2,205.41,223.31Z"/><path class="cls-20" d="M216.52,225.7l-51.78,14.78c-.65-.16-1.29-.34-1.91-.52l51.94-14.78C215.37,225.35,216,225.52,216.52,225.7Z"/><path class="cls-18" d="M218.56,232.68a2.34,2.34,0,0,1,0,.38c-.71,4.43-13.6,8-29.36,8s-28.64-3.53-29.35-8a2.34,2.34,0,0,1,0-.38c0-4.6,13.18-8.35,29.38-8.35S218.56,228.08,218.56,232.68Z"/><path class="cls-19" d="M218.53,233.06c-.71,4.43-13.6,8-29.36,8h-1a99.54,99.54,0,0,1-10-.6,66.27,66.27,0,0,1-8.4-1.48c-.63-.16-1.23-.33-1.81-.5a20.6,20.6,0,0,1-6.15-2.74,6.17,6.17,0,0,1-.89-.75,3.45,3.45,0,0,1-1.08-1.89c.71-4.42,13.6-8,29.35-8,2,0,4,.06,5.83.16,1,.06,1.91.13,2.83.21A70.69,70.69,0,0,1,208,227.05q1,.22,1.86.48a25.36,25.36,0,0,1,5.68,2.26,6.24,6.24,0,0,1,2.77,2.65A2.31,2.31,0,0,1,218.53,233.06Z"/><path class="cls-17" d="M218.35,232.44,188.13,241a99.54,99.54,0,0,1-10-.6l37.43-10.63A6.24,6.24,0,0,1,218.35,232.44Z"/><path class="cls-17" d="M197.83,225.47l-36,10.23a6.17,6.17,0,0,1-.89-.75l34.1-9.69C196,225.32,196.91,225.39,197.83,225.47Z"/><path class="cls-17" d="M209.9,227.53l-40.15,11.41c-.63-.16-1.23-.33-1.81-.5L208,227.05Q209,227.27,209.9,227.53Z"/><path class="cls-18" d="M193.26,237.41v1.39h-6.2v-1.32a82,82,0,0,1-11.3-.88l3.34-2.15a65.73,65.73,0,0,0,10.16.8c3,0,4-.17,4-.47,0-1.1-17-.21-17-3.47,0-1.42,3.61-2.6,10.82-2.89v-1.36h6.2v1.34a70.36,70.36,0,0,1,8.93.72l-3.12,2.14a60,60,0,0,0-8.58-.65c-3,0-4,.25-4,.55,0,1.05,17,.17,17,3.39C203.51,235.9,200.08,237.08,193.26,237.41Z"/><path class="cls-16" d="M193.08,237v1.39h-6.2V237a82.25,82.25,0,0,1-11.31-.88l3.35-2.15a65.73,65.73,0,0,0,10.16.8c2.95,0,4-.17,4-.47,0-1.1-17-.22-17-3.48,0-1.41,3.61-2.59,10.82-2.88V226.6h6.2v1.33a72.11,72.11,0,0,1,8.93.73l-3.12,2.13a61.46,61.46,0,0,0-8.58-.65c-3,0-4,.25-4,.55,0,1.05,17,.18,17,3.4C203.33,235.44,199.9,236.62,193.08,237Z"/><path class="cls-19" d="M224.12,229.21v.1a5,5,0,0,1-1.93,3.64,12.64,12.64,0,0,1-1,.83,21.16,21.16,0,0,1-3.86,2.12l-1,.42c-1.18.46-2.47.9-3.86,1.3l-1,.28q-1.83.49-3.87.9l-1,.2c-1.24.24-2.53.45-3.87.64l-1,.14c-1.26.16-2.55.31-3.87.43l-1,.08c-1.27.11-2.56.19-3.87.25l-1,.05c-1.26,0-2.55.07-3.86.08h-1c-1.3,0-2.59,0-3.86-.07l-1,0c-1,0-1.92-.1-2.86-.16l-1-.08-1-.08c-1.32-.12-2.6-.26-3.86-.42l-1-.13c-.8-.11-1.58-.23-2.35-.36l-1.51-.26-1-.2c-1.35-.27-2.64-.56-3.86-.88l-.72-.19-.3-.08-1.61-.48c-.79-.26-1.54-.52-2.25-.79l-1-.4a23.12,23.12,0,0,1-3.42-1.75l-.44-.28c-.18-.12-.35-.24-.51-.37s-.35-.26-.51-.4a5.3,5.3,0,0,1-2.28-3.94,2.83,2.83,0,0,1,0-.29v-7.85h73.53v8.15Z"/><path class="cls-18" d="M153.86,221.16V234c-.18-.12-.35-.24-.51-.37s-.35-.26-.51-.4V221.16Z"/><path class="cls-18" d="M158.74,221.16v15.29l-1-.4V221.16Z"/><path class="cls-18" d="M163.62,221.15V238l-.72-.19-.3-.08V221.15Z"/><path class="cls-18" d="M168.5,221.14v17.93l-1-.2V221.14Z"/><path class="cls-18" d="M173.38,221.13v18.69l-1-.13V221.14Z"/><path class="cls-18" d="M178.26,221.13v19.19l-1-.08V221.13Z"/><path class="cls-18" d="M183.14,221.12V240.6l-1,0V221.12Z"/><path class="cls-18" d="M188,221.11v19.56h-1V221.11Z"/><path class="cls-18" d="M192.9,221.11v19.43l-1,.05V221.11Z"/><path class="cls-18" d="M197.78,221.1v19.11l-1,.08V221.1Z"/><path class="cls-18" d="M202.66,221.09v18.55l-1,.14V221.09Z"/><path class="cls-18" d="M207.54,221.08V238.8l-1,.2V221.09Z"/><path class="cls-18" d="M212.43,221.08v16.54l-1,.28V221.08Z"/><path class="cls-18" d="M217.31,221.07V235.9l-1,.42V221.07Z"/><path class="cls-18" d="M222.19,221.06V233a12.64,12.64,0,0,1-1,.83V221.06Z"/><path class="cls-16" d="M224.11,221.16c0,5.76-16.46,10.44-36.77,10.44-2.77,0-5.47-.09-8.07-.25-3.27-.21-6.37-.54-9.25-1-2.57-.39-5-.86-7.11-1.41-.66-.16-1.29-.34-1.91-.52a30.8,30.8,0,0,1-6.69-2.69c-.34-.2-.65-.4-.95-.6-1.79-1.23-2.78-2.58-2.78-4a2.56,2.56,0,0,1,0-.39c.71-5.59,16.89-10.05,36.73-10.05a121.69,121.69,0,0,1,13.81.76c.83.09,1.64.2,2.43.31a74.71,74.71,0,0,1,9.36,1.87c.6.17,1.19.34,1.75.52a30.35,30.35,0,0,1,5.15,2.09,11,11,0,0,1,3.31,2.5,3.92,3.92,0,0,1,.93,2A2.56,2.56,0,0,1,224.11,221.16Z"/><path class="cls-20" d="M223.15,218.77l-43.88,12.58c-3.27-.21-6.37-.54-9.25-1l49.82-14.1A11,11,0,0,1,223.15,218.77Z"/><path class="cls-20" d="M203.58,211.79l-49.27,14c-.34-.2-.65-.4-.95-.6l47.79-13.67C202,211.57,202.79,211.68,203.58,211.79Z"/><path class="cls-20" d="M214.69,214.18,162.91,229c-.66-.16-1.29-.34-1.91-.52l51.94-14.78C213.54,213.83,214.13,214,214.69,214.18Z"/><path class="cls-18" d="M216.73,221.16a2.34,2.34,0,0,1,0,.38c-.71,4.43-13.6,8-29.36,8s-28.64-3.53-29.35-8a2.34,2.34,0,0,1,0-.38c0-4.6,13.18-8.35,29.38-8.35S216.73,216.56,216.73,221.16Z"/><path class="cls-19" d="M216.7,221.54c-.71,4.43-13.6,8-29.36,8h-1.05a99.52,99.52,0,0,1-10-.6,66.27,66.27,0,0,1-8.4-1.48c-.63-.16-1.23-.33-1.81-.5a20.6,20.6,0,0,1-6.15-2.74,6.17,6.17,0,0,1-.89-.75,3.45,3.45,0,0,1-1.08-1.89c.71-4.42,13.6-8,29.35-8,2,0,3.94.06,5.83.16,1,.06,1.91.13,2.83.21a70.69,70.69,0,0,1,10.21,1.58q1,.22,1.86.48a25.36,25.36,0,0,1,5.68,2.26,6.24,6.24,0,0,1,2.77,2.65A2.31,2.31,0,0,1,216.7,221.54Z"/><path class="cls-17" d="M216.52,220.92l-30.23,8.58a99.52,99.52,0,0,1-10-.6l37.43-10.63A6.24,6.24,0,0,1,216.52,220.92Z"/><path class="cls-17" d="M196,214l-36,10.23a6.17,6.17,0,0,1-.89-.75l34.1-9.69C194.13,213.8,195.08,213.87,196,214Z"/><path class="cls-17" d="M208.07,216l-40.15,11.41c-.63-.16-1.23-.33-1.81-.5l40.1-11.39Q207.17,215.76,208.07,216Z"/><path class="cls-18" d="M191.43,225.89v1.39h-6.2V226a82.25,82.25,0,0,1-11.31-.88l3.35-2.15a65.73,65.73,0,0,0,10.16.8c2.95,0,4-.17,4-.47,0-1.1-17-.21-17-3.47,0-1.42,3.61-2.6,10.82-2.89v-1.36h6.2v1.33a72.11,72.11,0,0,1,8.93.73l-3.12,2.14a60,60,0,0,0-8.58-.65c-3,0-4,.25-4,.55,0,1,17,.17,17,3.39C201.68,224.38,198.25,225.56,191.43,225.89Z"/><path class="cls-16" d="M191.25,225.43v1.39h-6.2v-1.33a80.91,80.91,0,0,1-11.31-.87l3.35-2.15a65.73,65.73,0,0,0,10.16.8c2.94,0,4-.17,4-.47,0-1.1-17-.22-17-3.48,0-1.41,3.61-2.59,10.82-2.88v-1.36h6.2v1.33a72.11,72.11,0,0,1,8.93.73l-3.12,2.13a61.46,61.46,0,0,0-8.58-.65c-3,0-4,.25-4,.55,0,1.05,17,.18,17,3.4C201.5,223.92,198.07,225.1,191.25,225.43Z"/><path class="cls-19" d="M223.84,215.62v.1a5.06,5.06,0,0,1-1.93,3.65,12.58,12.58,0,0,1-1,.82,21.16,21.16,0,0,1-3.86,2.12l-1,.42c-1.18.46-2.47.9-3.86,1.3l-1,.28c-1.22.33-2.51.63-3.86.91l-1,.2q-1.86.35-3.87.63l-1,.14c-1.26.16-2.55.31-3.87.43l-1,.09c-1.27.1-2.55.18-3.87.24l-1,.05c-1.27,0-2.56.07-3.87.08h-1c-1.31,0-2.6,0-3.87-.07l-1,0c-1,0-1.92-.1-2.86-.16l-1-.08-1-.08c-1.31-.12-2.6-.26-3.86-.42l-1-.13c-.79-.11-1.58-.23-2.35-.36l-1.51-.26-1-.2c-1.35-.26-2.64-.56-3.86-.88l-.71-.19-.31-.08-1.61-.48c-.79-.25-1.54-.52-2.25-.79l-1-.4a23.12,23.12,0,0,1-3.42-1.75l-.44-.28-.51-.36c-.18-.14-.35-.27-.51-.41a5.3,5.3,0,0,1-2.28-3.94,2.83,2.83,0,0,1,0-.29v-7.85h73.53v8.15Z"/><path class="cls-18" d="M153.58,207.57v12.86l-.51-.36c-.18-.14-.35-.27-.51-.41V207.58Z"/><path class="cls-18" d="M158.46,207.57v15.29l-1-.4V207.57Z"/><path class="cls-18" d="M163.34,207.56V224.4l-.71-.19-.31-.08V207.56Z"/><path class="cls-18" d="M168.22,207.55v17.93l-1-.2V207.55Z"/><path class="cls-18" d="M173.1,207.55v18.68l-1-.13V207.55Z"/><path class="cls-18" d="M178,207.54v19.19l-1-.08V207.54Z"/><path class="cls-18" d="M182.86,207.53V227l-1,0V207.53Z"/><path class="cls-18" d="M187.74,207.52v19.56h-1V207.53Z"/><path class="cls-18" d="M192.62,207.52V227l-1,.05V207.52Z"/><path class="cls-18" d="M197.5,207.51v19.11l-1,.09v-19.2Z"/><path class="cls-18" d="M202.38,207.5v18.55l-1,.14V207.5Z"/><path class="cls-18" d="M207.27,207.49v17.73l-1,.2V207.5Z"/><path class="cls-18" d="M212.15,207.49V224l-1,.28V207.49Z"/><path class="cls-18" d="M217,207.48v14.83l-1,.42V207.48Z"/><path class="cls-18" d="M221.91,207.47v11.9a12.58,12.58,0,0,1-1,.82V207.47Z"/><path class="cls-16" d="M223.83,207.57c0,5.77-16.46,10.44-36.77,10.44-2.77,0-5.47-.09-8.07-.25-3.27-.21-6.37-.54-9.25-1-2.57-.39-5-.86-7.11-1.41-.65-.16-1.29-.34-1.91-.52a30.3,30.3,0,0,1-6.69-2.69c-.34-.2-.65-.4-.95-.6-1.79-1.23-2.78-2.58-2.78-4a2.56,2.56,0,0,1,0-.39c.71-5.58,16.89-10.05,36.73-10.05a121.69,121.69,0,0,1,13.81.76c.83.09,1.64.2,2.43.31a74.71,74.71,0,0,1,9.36,1.87c.6.17,1.19.34,1.75.52a30,30,0,0,1,5.15,2.09,11,11,0,0,1,3.31,2.5,3.92,3.92,0,0,1,.93,2A2.56,2.56,0,0,1,223.83,207.57Z"/><path class="cls-20" d="M222.87,205.18,179,217.76c-3.27-.21-6.37-.54-9.25-1l49.82-14.1A11,11,0,0,1,222.87,205.18Z"/><path class="cls-20" d="M203.3,198.2l-49.27,14c-.34-.2-.65-.4-.95-.6l47.79-13.67C201.7,198,202.51,198.09,203.3,198.2Z"/><path class="cls-20" d="M214.41,200.59l-51.78,14.78c-.65-.16-1.29-.34-1.91-.52l51.94-14.78C213.26,200.24,213.85,200.41,214.41,200.59Z"/><path class="cls-18" d="M216.45,207.57a2.34,2.34,0,0,1,0,.38c-.71,4.43-13.6,8-29.35,8s-28.65-3.54-29.36-8a2.34,2.34,0,0,1,0-.38c0-4.6,13.18-8.35,29.39-8.35S216.45,203,216.45,207.57Z"/><path class="cls-19" d="M216.42,208c-.71,4.43-13.6,8-29.35,8h-1a96.66,96.66,0,0,1-10-.6,66.27,66.27,0,0,1-8.4-1.48c-.63-.16-1.23-.32-1.81-.5a20.87,20.87,0,0,1-6.15-2.73,6.91,6.91,0,0,1-.89-.76,3.45,3.45,0,0,1-1.08-1.89c.71-4.42,13.6-8,29.36-8,2,0,3.94.06,5.82.16,1,.06,1.91.13,2.83.21a72.1,72.1,0,0,1,10.21,1.58c.64.15,1.26.32,1.86.48a25.36,25.36,0,0,1,5.68,2.26,6.24,6.24,0,0,1,2.77,2.65A2.31,2.31,0,0,1,216.42,208Z"/><path class="cls-17" d="M216.24,207.33,186,215.91a96.66,96.66,0,0,1-10-.6l37.43-10.63A6.24,6.24,0,0,1,216.24,207.33Z"/><path class="cls-17" d="M195.72,200.36l-36,10.24a6.91,6.91,0,0,1-.89-.76l34.1-9.69C193.85,200.21,194.8,200.28,195.72,200.36Z"/><path class="cls-17" d="M207.79,202.42l-40.15,11.41c-.63-.16-1.23-.32-1.81-.5l40.1-11.39C206.57,202.09,207.19,202.26,207.79,202.42Z"/><path class="cls-18" d="M191.15,212.31v1.38H185v-1.32a80.4,80.4,0,0,1-11.3-.88l3.34-2.15a65.73,65.73,0,0,0,10.16.8c2.95,0,4-.17,4-.47,0-1.1-17-.21-17-3.47,0-1.42,3.61-2.6,10.82-2.89V202h6.2v1.34a70.36,70.36,0,0,1,8.93.72L197,206.15a60,60,0,0,0-8.58-.65c-3,0-4,.25-4,.55,0,1,17,.17,17,3.39C201.4,210.79,198,212,191.15,212.31Z"/><path class="cls-16" d="M191,211.84v1.39h-6.2v-1.32a82,82,0,0,1-11.3-.88l3.34-2.15a65.73,65.73,0,0,0,10.16.8c2.95,0,4-.17,4-.47,0-1.1-17-.21-17-3.47,0-1.42,3.61-2.6,10.82-2.89v-1.36H191v1.33a72.11,72.11,0,0,1,8.93.73l-3.12,2.14a60,60,0,0,0-8.58-.65c-3,0-4,.25-4,.55,0,1,17,.17,17,3.39C201.22,210.33,197.79,211.51,191,211.84Z"/><path class="cls-19" d="M226.05,203.45v.1a5,5,0,0,1-1.94,3.64,10.92,10.92,0,0,1-1,.83,21.27,21.27,0,0,1-3.87,2.12l-1,.42c-1.18.46-2.47.9-3.87,1.3l-1,.28q-1.83.5-3.87.9l-1,.2c-1.24.24-2.52.45-3.86.64l-1,.14c-1.25.16-2.54.3-3.86.43l-1,.08c-1.26.11-2.55.19-3.86.25l-1,0c-1.26.05-2.55.08-3.86.09h-1c-1.3,0-2.59,0-3.86-.07l-1,0c-1-.05-1.92-.1-2.86-.17l-1-.07-1-.09c-1.32-.11-2.61-.25-3.86-.41l-1-.13c-.8-.11-1.58-.23-2.35-.36l-1.51-.26-1-.2c-1.35-.27-2.64-.56-3.86-.88l-.72-.19-.3-.09c-.55-.15-1.09-.31-1.61-.48q-1.18-.37-2.25-.78c-.35-.13-.69-.27-1-.41a22.2,22.2,0,0,1-3.42-1.74l-.44-.28c-.18-.12-.35-.24-.51-.37s-.35-.26-.51-.4a5.32,5.32,0,0,1-2.28-3.94,2.64,2.64,0,0,1,0-.29v-7.85H226l0,8.15Z"/><path class="cls-18" d="M155.79,195.4v12.86c-.18-.12-.35-.24-.51-.37s-.35-.26-.51-.4V195.4Z"/><path class="cls-18" d="M160.67,195.39v15.3c-.35-.13-.69-.27-1-.41V195.4Z"/><path class="cls-18" d="M165.55,195.39v16.84l-.72-.19-.3-.09V195.39Z"/><path class="cls-18" d="M170.43,195.38v17.93l-1-.2V195.38Z"/><path class="cls-18" d="M175.31,195.37v18.69l-1-.13V195.37Z"/><path class="cls-18" d="M180.19,195.37v19.19l-1-.09v-19.1Z"/><path class="cls-18" d="M185.07,195.36v19.48l-1,0V195.36Z"/><path class="cls-18" d="M190,195.35v19.56h-1V195.35Z"/><path class="cls-18" d="M194.83,195.34v19.44l-1,0V195.35Z"/><path class="cls-18" d="M199.71,195.34v19.11l-1,.08V195.34Z"/><path class="cls-18" d="M204.59,195.33v18.55l-1,.14V195.33Z"/><path class="cls-18" d="M209.47,195.32V213l-1,.2V195.32Z"/><path class="cls-18" d="M214.35,195.32v16.54l-1,.28V195.32Z"/><path class="cls-18" d="M219.23,195.31v14.83l-1,.42V195.31Z"/><path class="cls-18" d="M224.11,195.3v11.89a10.92,10.92,0,0,1-1,.83V195.3Z"/><path class="cls-16" d="M226,195.4c0,5.76-16.46,10.44-36.77,10.44-2.77,0-5.47-.09-8.07-.25-3.27-.21-6.38-.54-9.25-1-2.57-.39-4.95-.86-7.11-1.41-.66-.17-1.3-.34-1.91-.52a31.31,31.31,0,0,1-6.69-2.69c-.34-.2-.66-.4-1-.6-1.79-1.23-2.78-2.58-2.78-4a1.71,1.71,0,0,1,0-.39c.71-5.59,16.88-10,36.73-10a121.69,121.69,0,0,1,13.81.76c.83.09,1.63.2,2.43.31a75.08,75.08,0,0,1,9.36,1.87c.6.17,1.18.34,1.75.52a30.35,30.35,0,0,1,5.15,2.09,10.85,10.85,0,0,1,3.3,2.5,4,4,0,0,1,.94,2A2.56,2.56,0,0,1,226,195.4Z"/><path class="cls-20" d="M225.07,193,181.2,205.59c-3.27-.21-6.38-.54-9.25-1l49.82-14.1A10.85,10.85,0,0,1,225.07,193Z"/><path class="cls-20" d="M205.51,186l-49.27,14c-.34-.2-.66-.4-1-.6l47.79-13.67C203.91,185.81,204.71,185.92,205.51,186Z"/><path class="cls-20" d="M216.62,188.42,164.84,203.2c-.66-.17-1.3-.34-1.91-.52l51.94-14.78C215.47,188.07,216.05,188.24,216.62,188.42Z"/><path class="cls-18" d="M218.66,195.4a2.43,2.43,0,0,1,0,.38c-.71,4.43-13.6,8-29.36,8s-28.65-3.53-29.35-8a2.43,2.43,0,0,1,0-.38c0-4.6,13.18-8.35,29.38-8.35S218.66,190.8,218.66,195.4Z"/><path class="cls-19" d="M218.63,195.78c-.71,4.43-13.6,8-29.36,8h-1.05a96.54,96.54,0,0,1-10-.61,64.23,64.23,0,0,1-8.4-1.48c-.63-.15-1.23-.32-1.82-.49a20.53,20.53,0,0,1-6.14-2.74,7.77,7.77,0,0,1-.9-.75,3.52,3.52,0,0,1-1.07-1.89c.7-4.42,13.6-8,29.35-8q3,0,5.83.16c1,.06,1.91.13,2.83.21a70.69,70.69,0,0,1,10.21,1.58q1,.22,1.86.48a25.11,25.11,0,0,1,5.68,2.25,6.35,6.35,0,0,1,2.77,2.65A2.49,2.49,0,0,1,218.63,195.78Z"/><path class="cls-17" d="M218.45,195.15l-30.23,8.59a96.54,96.54,0,0,1-10-.61l37.43-10.63A6.35,6.35,0,0,1,218.45,195.15Z"/><path class="cls-17" d="M197.93,188.19l-36,10.23a7.77,7.77,0,0,1-.9-.75L195.1,188C196.06,188,197,188.11,197.93,188.19Z"/><path class="cls-17" d="M210,190.25l-40.15,11.4c-.63-.15-1.23-.32-1.82-.49l40.11-11.39Q209.1,190,210,190.25Z"/><path class="cls-18" d="M193.36,200.13v1.39h-6.2V200.2a82.25,82.25,0,0,1-11.31-.88l3.35-2.15a65.73,65.73,0,0,0,10.16.8c2.94,0,4-.17,4-.47,0-1.1-17-.22-17-3.48,0-1.41,3.6-2.59,10.82-2.88v-1.36h6.2v1.33a72.28,72.28,0,0,1,8.93.73L199.17,194a61.46,61.46,0,0,0-8.58-.65c-3,0-4,.25-4,.55,0,1,17,.18,17,3.4C203.61,198.62,200.18,199.8,193.36,200.13Z"/><path class="cls-16" d="M193.18,199.67v1.39H187v-1.33a80.91,80.91,0,0,1-11.31-.87l3.35-2.15a65.73,65.73,0,0,0,10.16.8c2.94,0,4-.17,4-.47,0-1.1-17-.22-17-3.48,0-1.41,3.6-2.6,10.82-2.88v-1.36h6.2v1.33a72.28,72.28,0,0,1,8.93.73L199,193.51a61.46,61.46,0,0,0-8.58-.65c-3,0-4,.25-4,.55,0,1.05,17,.18,17,3.4C203.43,198.16,200,199.33,193.18,199.67Z"/><path class="cls-19" d="M223.76,192v.1a5,5,0,0,1-1.93,3.64,12.64,12.64,0,0,1-1,.83,20.83,20.83,0,0,1-3.86,2.12l-1,.42c-1.18.46-2.47.9-3.86,1.3l-1,.28c-1.22.33-2.51.63-3.86.9l-1,.2c-1.24.24-2.53.45-3.86.64l-1,.14c-1.25.16-2.54.3-3.86.43l-1,.08c-1.26.11-2.55.19-3.86.25l-1,0c-1.27,0-2.56.08-3.86.09h-1c-1.31,0-2.59,0-3.86-.07l-1,0c-1,0-1.92-.1-2.86-.17l-1-.07-1-.09c-1.32-.11-2.61-.25-3.86-.41l-1-.13c-.8-.11-1.58-.23-2.35-.36l-1.51-.26-1-.2c-1.35-.27-2.64-.56-3.86-.88l-.72-.19-.3-.09c-.56-.15-1.09-.31-1.61-.48q-1.19-.37-2.25-.78c-.35-.13-.69-.27-1-.41a22.33,22.33,0,0,1-3.43-1.74l-.43-.28c-.18-.12-.35-.24-.51-.37s-.35-.26-.51-.4a5.27,5.27,0,0,1-2.28-3.94,2.81,2.81,0,0,1,0-.29V184h73.52V192Z"/><path class="cls-18" d="M153.51,184v12.86c-.18-.12-.35-.24-.51-.37s-.35-.26-.51-.4V184Z"/><path class="cls-18" d="M158.39,183.94v15.3c-.35-.13-.69-.27-1-.41V184Z"/><path class="cls-18" d="M163.27,183.94v16.84l-.72-.19-.3-.09V183.94Z"/><path class="cls-18" d="M168.15,183.93v17.93l-1-.2V183.93Z"/><path class="cls-18" d="M173,183.92v18.69l-1-.13V183.92Z"/><path class="cls-18" d="M177.91,183.92v19.19l-1-.09v-19.1Z"/><path class="cls-18" d="M182.79,183.91v19.48l-1,0V183.91Z"/><path class="cls-18" d="M187.67,183.9v19.56h-1V183.9Z"/><path class="cls-18" d="M192.55,183.89v19.44l-1,0V183.9Z"/><path class="cls-18" d="M197.43,183.89V203l-1,.08V183.89Z"/><path class="cls-18" d="M202.31,183.88v18.55l-1,.14V183.88Z"/><path class="cls-18" d="M207.19,183.87v17.72l-1,.2V183.87Z"/><path class="cls-18" d="M212.07,183.87v16.54l-1,.28V183.87Z"/><path class="cls-18" d="M217,183.86v14.83l-1,.42V183.86Z"/><path class="cls-18" d="M221.83,183.85v11.89a12.64,12.64,0,0,1-1,.83V183.85Z"/><path class="cls-16" d="M223.76,184c0,5.76-16.46,10.44-36.77,10.44-2.78,0-5.48-.09-8.08-.25-3.26-.21-6.37-.54-9.24-1-2.57-.39-4.95-.86-7.11-1.41-.66-.17-1.3-.34-1.91-.52a31.42,31.42,0,0,1-6.7-2.69c-.33-.2-.65-.4-.94-.6-1.8-1.23-2.79-2.58-2.79-4a2.56,2.56,0,0,1,0-.39C151,178,167.14,173.51,187,173.51a121.82,121.82,0,0,1,13.81.76c.82.09,1.63.2,2.42.31a74.35,74.35,0,0,1,9.36,1.87c.61.17,1.19.34,1.75.52a30.14,30.14,0,0,1,5.16,2.09,11.11,11.11,0,0,1,3.3,2.5,4,4,0,0,1,.94,2A2.56,2.56,0,0,1,223.76,184Z"/><path class="cls-20" d="M222.79,181.56l-43.88,12.58c-3.26-.21-6.37-.54-9.24-1l49.82-14.1A11.11,11.11,0,0,1,222.79,181.56Z"/><path class="cls-20" d="M203.22,174.58l-49.27,14c-.33-.2-.65-.4-.94-.6l47.79-13.67C201.62,174.36,202.43,174.47,203.22,174.58Z"/><path class="cls-20" d="M214.33,177l-51.77,14.78c-.66-.17-1.3-.34-1.91-.52l51.93-14.78C213.19,176.62,213.77,176.79,214.33,177Z"/><path class="cls-18" d="M216.38,184c0,.13,0,.25,0,.38-.71,4.43-13.61,8-29.36,8s-28.65-3.53-29.36-8c0-.13,0-.25,0-.38,0-4.6,13.19-8.35,29.39-8.35S216.38,179.35,216.38,184Z"/><path class="cls-19" d="M216.35,184.33c-.71,4.43-13.61,8-29.36,8h-1.05a96.54,96.54,0,0,1-10-.61,64.7,64.7,0,0,1-8.41-1.48c-.62-.15-1.23-.32-1.81-.49A20.72,20.72,0,0,1,159.6,187a6.88,6.88,0,0,1-.89-.75,3.55,3.55,0,0,1-1.08-1.89c.71-4.42,13.61-8,29.36-8,2,0,3.94,0,5.83.16,1,.06,1.9.13,2.83.21a71.13,71.13,0,0,1,10.21,1.58c.64.15,1.26.31,1.85.48a25.21,25.21,0,0,1,5.69,2.25,6.26,6.26,0,0,1,2.76,2.65A3,3,0,0,1,216.35,184.33Z"/><path class="cls-17" d="M216.16,183.7l-30.22,8.59a96.54,96.54,0,0,1-10-.61l37.43-10.63A6.26,6.26,0,0,1,216.16,183.7Z"/><path class="cls-17" d="M195.65,176.74,159.6,187a6.88,6.88,0,0,1-.89-.75l34.11-9.69C193.78,176.59,194.72,176.66,195.65,176.74Z"/><path class="cls-17" d="M207.71,178.8l-40.15,11.4c-.62-.15-1.23-.32-1.81-.49l40.11-11.39C206.5,178.47,207.12,178.63,207.71,178.8Z"/><path class="cls-18" d="M191.08,188.68v1.39h-6.21v-1.32a82.22,82.22,0,0,1-11.3-.88l3.34-2.15a65.93,65.93,0,0,0,10.16.8c3,0,4-.17,4-.47,0-1.1-17-.22-17-3.48,0-1.41,3.61-2.59,10.82-2.88v-1.36h6.21v1.33a72.28,72.28,0,0,1,8.93.73l-3.13,2.13a61.21,61.21,0,0,0-8.57-.65c-3,0-4,.25-4,.55,0,1.05,17,.18,17,3.4C201.32,187.17,197.89,188.35,191.08,188.68Z"/><path class="cls-16" d="M190.9,188.22v1.39h-6.21v-1.33a80.88,80.88,0,0,1-11.3-.87l3.34-2.15a65.93,65.93,0,0,0,10.16.8c3,0,4-.17,4-.47,0-1.1-17-.22-17-3.48,0-1.41,3.61-2.6,10.82-2.88v-1.36h6.21v1.33a71.94,71.94,0,0,1,8.92.73l-3.12,2.13a61.24,61.24,0,0,0-8.58-.65c-3,0-4,.25-4,.55,0,1,17,.18,17,3.4C201.14,186.71,197.71,187.88,190.9,188.22Z"/><path class="cls-19" d="M224.48,179.37a.41.41,0,0,1,0,.11,5,5,0,0,1-1.94,3.64,8.69,8.69,0,0,1-1,.82,20.26,20.26,0,0,1-3.86,2.13l-1,.42c-1.18.46-2.47.89-3.86,1.29l-1,.29c-1.22.32-2.51.63-3.86.9l-1,.2c-1.24.24-2.53.45-3.86.64l-1,.14c-1.25.16-2.54.3-3.86.42l-1,.09c-1.26.1-2.55.19-3.86.25l-1,0c-1.27.05-2.55.08-3.86.08h-1c-1.3,0-2.59,0-3.86-.08l-1,0c-1,0-1.92-.09-2.86-.16l-1-.07-1-.09c-1.32-.11-2.61-.25-3.86-.41l-1-.14c-.8-.11-1.58-.22-2.35-.35-.51-.09-1-.17-1.51-.27l-1-.19c-1.35-.27-2.64-.56-3.86-.88l-.72-.19-.3-.09c-.55-.15-1.09-.31-1.61-.48q-1.19-.37-2.25-.78l-1-.41a23.78,23.78,0,0,1-3.43-1.74l-.43-.29-.51-.36c-.18-.13-.35-.27-.51-.4a5.3,5.3,0,0,1-2.28-3.94c0-.1,0-.2,0-.3v-7.85h73.52l0,8.14Z"/><path class="cls-18" d="M154.23,171.33v12.85l-.51-.36c-.18-.13-.35-.27-.51-.4V171.33Z"/><path class="cls-18" d="M159.11,171.32v15.3l-1-.41V171.32Z"/><path class="cls-18" d="M164,171.31v16.85l-.72-.19-.3-.09V171.32Z"/><path class="cls-18" d="M168.87,171.31v17.92l-1-.19V171.31Z"/><path class="cls-18" d="M173.75,171.3V190l-1-.14V171.3Z"/><path class="cls-18" d="M178.63,171.29v19.2l-1-.09V171.29Z"/><path class="cls-18" d="M183.51,171.29v19.47l-1,0V171.29Z"/><path class="cls-18" d="M188.39,171.28v19.55h-1V171.28Z"/><path class="cls-18" d="M193.27,171.27v19.44l-1,0V171.27Z"/><path class="cls-18" d="M198.15,171.26v19.11l-1,.09V171.27Z"/><path class="cls-18" d="M203,171.26v18.55l-1,.14V171.26Z"/><path class="cls-18" d="M207.91,171.25V189l-1,.2V171.25Z"/><path class="cls-18" d="M212.79,171.24v16.54l-1,.29V171.24Z"/><path class="cls-18" d="M217.67,171.24v14.83l-1,.42V171.24Z"/><path class="cls-18" d="M222.55,171.23v11.89a8.69,8.69,0,0,1-1,.82V171.23Z"/><path class="cls-16" d="M224.48,171.32c0,5.77-16.46,10.45-36.77,10.45-2.77,0-5.48-.09-8.08-.26-3.26-.2-6.37-.54-9.24-1-2.57-.39-4.95-.87-7.11-1.41-.66-.17-1.3-.34-1.91-.52a30.57,30.57,0,0,1-6.69-2.7c-.34-.19-.66-.39-1-.59-1.8-1.23-2.79-2.58-2.79-4a2.53,2.53,0,0,1,0-.38c.72-5.59,16.89-10.06,36.74-10.06a121.82,121.82,0,0,1,13.81.76l2.42.31a74.25,74.25,0,0,1,9.36,1.88c.61.16,1.19.34,1.75.51a30.94,30.94,0,0,1,5.16,2.1,11,11,0,0,1,3.3,2.5,4,4,0,0,1,.94,2A2.53,2.53,0,0,1,224.48,171.32Z"/><path class="cls-20" d="M223.51,168.94l-43.88,12.57c-3.26-.2-6.37-.54-9.24-1l49.82-14.1A11,11,0,0,1,223.51,168.94Z"/><path class="cls-20" d="M203.94,162l-49.26,14c-.34-.19-.66-.39-1-.59l47.79-13.68Z"/><path class="cls-20" d="M215.05,164.34l-51.77,14.79c-.66-.17-1.3-.34-1.91-.52l51.93-14.78C213.91,164,214.49,164.17,215.05,164.34Z"/><path class="cls-18" d="M217.1,171.33a2.53,2.53,0,0,1,0,.38c-.71,4.42-13.61,8-29.36,8s-28.65-3.54-29.36-8c0-.13,0-.26,0-.38,0-4.61,13.19-8.35,29.39-8.35S217.1,166.72,217.1,171.33Z"/><path class="cls-19" d="M217.07,171.71c-.71,4.42-13.61,8-29.36,8h-1.05a96.54,96.54,0,0,1-10-.61,66.44,66.44,0,0,1-8.41-1.48c-.62-.16-1.23-.32-1.81-.49a20.78,20.78,0,0,1-6.14-2.74,7.94,7.94,0,0,1-.9-.75,3.55,3.55,0,0,1-1.08-1.89c.71-4.43,13.61-8,29.36-8,2,0,3.94.06,5.83.17,1,.05,1.9.12,2.83.2a72,72,0,0,1,10.21,1.59c.64.15,1.26.31,1.85.48a25.21,25.21,0,0,1,5.69,2.25,6.26,6.26,0,0,1,2.76,2.65A2.52,2.52,0,0,1,217.07,171.71Z"/><path class="cls-17" d="M216.88,171.08l-30.22,8.59a96.54,96.54,0,0,1-10-.61l37.43-10.63A6.26,6.26,0,0,1,216.88,171.08Z"/><path class="cls-17" d="M196.37,164.11l-36,10.24a7.94,7.94,0,0,1-.9-.75l34.11-9.69C194.5,164,195.44,164,196.37,164.11Z"/><path class="cls-17" d="M208.43,166.18l-40.15,11.4c-.62-.16-1.23-.32-1.81-.49l40.11-11.39C207.22,165.85,207.84,166,208.43,166.18Z"/><path class="cls-18" d="M191.8,176.06v1.39h-6.2v-1.33a80.91,80.91,0,0,1-11.31-.87l3.34-2.15a65.93,65.93,0,0,0,10.16.8c3,0,4-.18,4-.48,0-1.09-17-.21-17-3.47,0-1.41,3.61-2.6,10.83-2.88V165.7h6.2V167a72.28,72.28,0,0,1,8.93.73l-3.13,2.13a59.74,59.74,0,0,0-8.57-.65c-3,0-4,.25-4,.55,0,1,17,.18,17,3.4C202.05,174.55,198.62,175.72,191.8,176.06Z"/><path class="cls-16" d="M191.62,175.6V177h-6.21v-1.33a80.88,80.88,0,0,1-11.3-.87l3.34-2.15a65.93,65.93,0,0,0,10.16.8c2.95,0,4-.18,4-.48,0-1.1-17-.21-17-3.47,0-1.41,3.61-2.6,10.82-2.89v-1.36h6.21v1.34a72.42,72.42,0,0,1,8.93.72l-3.13,2.14a59.74,59.74,0,0,0-8.57-.65c-3,0-4,.25-4,.55,0,1,17,.18,17,3.4C201.87,174.09,198.43,175.26,191.62,175.6Z"/><path class="cls-19" d="M223.14,167.16v.11a5,5,0,0,1-1.93,3.64,12.58,12.58,0,0,1-1,.82,20.33,20.33,0,0,1-3.86,2.12q-.5.22-1,.42c-1.18.47-2.47.9-3.86,1.3l-1,.29c-1.22.32-2.51.63-3.87.9l-1,.2c-1.24.23-2.52.45-3.86.64l-1,.14c-1.25.16-2.54.3-3.86.42l-1,.09c-1.26.1-2.55.19-3.86.25l-1,0c-1.26.05-2.55.08-3.86.08h-1c-1.3,0-2.59,0-3.86-.07l-1,0c-1,0-1.92-.09-2.86-.16l-1-.07-1-.09c-1.32-.11-2.6-.25-3.86-.41l-1-.14-2.35-.35c-.51-.09-1-.17-1.51-.27l-1-.19c-1.35-.27-2.64-.56-3.86-.88l-.72-.19-.3-.09c-.55-.15-1.09-.31-1.61-.48q-1.19-.37-2.25-.78l-1-.41a24.14,24.14,0,0,1-3.42-1.74l-.44-.29-.51-.36c-.18-.13-.35-.27-.51-.4a5.33,5.33,0,0,1-2.28-3.94c0-.1,0-.2,0-.3v-7.85h73.53v8.15Z"/><path class="cls-18" d="M152.88,159.12V172l-.51-.36c-.18-.13-.35-.27-.51-.4V159.12Z"/><path class="cls-18" d="M157.76,159.11v15.3l-1-.41V159.11Z"/><path class="cls-18" d="M162.64,159.1V176l-.72-.19-.3-.09V159.11Z"/><path class="cls-18" d="M167.52,159.1V177l-1-.19V159.1Z"/><path class="cls-18" d="M172.4,159.09v18.69l-1-.14V159.09Z"/><path class="cls-18" d="M177.28,159.08v19.2l-1-.09V159.08Z"/><path class="cls-18" d="M182.16,159.07v19.48l-1,0V159.08Z"/><path class="cls-18" d="M187,159.07v19.55h-1V159.07Z"/><path class="cls-18" d="M191.92,159.06V178.5l-1,0V159.06Z"/><path class="cls-18" d="M196.8,159.05v19.11l-1,.09v-19.2Z"/><path class="cls-18" d="M201.68,159.05V177.6l-1,.14V159.05Z"/><path class="cls-18" d="M206.56,159v17.72l-1,.2V159Z"/><path class="cls-18" d="M211.45,159v16.54l-1,.29V159Z"/><path class="cls-18" d="M216.33,159v14.83q-.5.22-1,.42V159Z"/><path class="cls-18" d="M221.21,159v11.89a12.58,12.58,0,0,1-1,.82V159Z"/><path class="cls-16" d="M223.13,159.11c0,5.77-16.46,10.45-36.77,10.45-2.77,0-5.47-.09-8.07-.26-3.27-.21-6.37-.54-9.25-1-2.57-.39-4.95-.87-7.11-1.41-.66-.17-1.29-.34-1.91-.52a30.77,30.77,0,0,1-6.69-2.7c-.34-.19-.66-.39-1-.59-1.79-1.23-2.78-2.58-2.78-4a2.43,2.43,0,0,1,0-.38c.71-5.59,16.88-10.06,36.73-10.06a121.69,121.69,0,0,1,13.81.76l2.43.31a75,75,0,0,1,9.36,1.88c.6.16,1.18.34,1.75.51a31.16,31.16,0,0,1,5.15,2.1,11,11,0,0,1,3.31,2.5,3.93,3.93,0,0,1,.93,2A2.43,2.43,0,0,1,223.13,159.11Z"/><path class="cls-20" d="M222.17,156.73,178.29,169.3c-3.27-.21-6.37-.54-9.25-1l49.82-14.1A11,11,0,0,1,222.17,156.73Z"/><path class="cls-20" d="M202.6,149.74l-49.27,14c-.34-.19-.66-.39-1-.59l47.79-13.68Z"/><path class="cls-20" d="M213.71,152.13l-51.78,14.79c-.66-.17-1.29-.34-1.91-.52L212,151.62C212.56,151.78,213.14,152,213.71,152.13Z"/><path class="cls-18" d="M215.75,159.11a2.56,2.56,0,0,1,0,.39c-.71,4.42-13.6,8-29.36,8s-28.64-3.54-29.35-8a2.56,2.56,0,0,1,0-.39c0-4.6,13.18-8.34,29.38-8.34S215.75,154.51,215.75,159.11Z"/><path class="cls-19" d="M215.72,159.5c-.71,4.42-13.6,8-29.36,8h-1.05a93.91,93.91,0,0,1-10-.6,66.27,66.27,0,0,1-8.4-1.48c-.63-.16-1.23-.32-1.82-.49a20.78,20.78,0,0,1-6.14-2.74,7.81,7.81,0,0,1-.9-.76A3.47,3.47,0,0,1,157,159.5c.71-4.43,13.6-8,29.35-8,2,0,3.94.06,5.83.17,1,.05,1.91.12,2.83.2a72,72,0,0,1,10.21,1.59q1,.22,1.86.48a24.92,24.92,0,0,1,5.68,2.25,6.29,6.29,0,0,1,2.77,2.65A2.49,2.49,0,0,1,215.72,159.5Z"/><path class="cls-17" d="M215.54,158.87l-30.23,8.58a93.91,93.91,0,0,1-10-.6l37.43-10.63A6.29,6.29,0,0,1,215.54,158.87Z"/><path class="cls-17" d="M195,151.9l-36,10.24a7.81,7.81,0,0,1-.9-.76l34.11-9.68C193.15,151.75,194.1,151.82,195,151.9Z"/><path class="cls-17" d="M207.09,154l-40.15,11.4c-.63-.16-1.23-.32-1.82-.49l40.11-11.39Q206.19,153.71,207.09,154Z"/><path class="cls-18" d="M190.45,163.85v1.39h-6.2v-1.33a80.91,80.91,0,0,1-11.31-.87l3.35-2.15a65.73,65.73,0,0,0,10.16.8c2.94,0,4-.18,4-.48,0-1.1-17-.21-17-3.47,0-1.41,3.6-2.6,10.82-2.88v-1.37h6.2v1.34a72.26,72.26,0,0,1,8.93.72l-3.12,2.14a60,60,0,0,0-8.58-.65c-3,0-4,.25-4,.55,0,1,17,.18,17,3.4C200.7,162.34,197.27,163.51,190.45,163.85Z"/><path class="cls-16" d="M190.27,163.39v1.38h-6.2v-1.32a80.91,80.91,0,0,1-11.31-.87l3.35-2.15a67,67,0,0,0,10.16.8c2.94,0,4-.18,4-.48,0-1.1-17-.21-17-3.47,0-1.41,3.6-2.6,10.82-2.89V153h6.2v1.34a72.42,72.42,0,0,1,8.93.72l-3.12,2.14a60,60,0,0,0-8.58-.65c-3,0-4,.25-4,.55,0,1.05,17,.17,17,3.4C200.52,161.88,197.09,163.05,190.27,163.39Z"/><path class="cls-19" d="M224.63,155.3v.1A5,5,0,0,1,222.7,159a12.64,12.64,0,0,1-1,.83,20.83,20.83,0,0,1-3.86,2.12l-1,.42c-1.18.46-2.47.9-3.86,1.3l-1,.28c-1.22.33-2.51.63-3.86.9l-1,.2c-1.24.24-2.53.45-3.86.64l-1,.14c-1.25.16-2.54.3-3.86.43l-1,.08c-1.26.11-2.55.19-3.86.25l-1,0c-1.27.05-2.56.08-3.86.09h-1c-1.31,0-2.59,0-3.86-.07l-1,0c-1-.05-1.92-.1-2.86-.17l-1-.07-1-.08c-1.32-.12-2.61-.26-3.86-.42l-1-.13c-.8-.11-1.58-.23-2.35-.36l-1.51-.26-1-.2c-1.35-.27-2.64-.56-3.86-.88l-.72-.19-.3-.09c-.56-.15-1.09-.31-1.61-.48q-1.19-.37-2.25-.78c-.35-.13-.69-.27-1-.41a22.33,22.33,0,0,1-3.43-1.74l-.43-.28c-.18-.12-.35-.24-.51-.37s-.35-.26-.51-.4a5.28,5.28,0,0,1-2.28-3.94,2.81,2.81,0,0,1,0-.29v-7.85h73.52v8.15Z"/><path class="cls-18" d="M154.38,147.25v12.86c-.18-.12-.35-.24-.51-.37s-.35-.26-.51-.4V147.25Z"/><path class="cls-18" d="M159.26,147.24v15.3c-.35-.13-.69-.27-1-.41V147.25Z"/><path class="cls-18" d="M164.14,147.24v16.84l-.72-.19-.3-.09V147.24Z"/><path class="cls-18" d="M169,147.23v17.93l-1-.2V147.23Z"/><path class="cls-18" d="M173.9,147.22v18.69l-1-.13V147.22Z"/><path class="cls-18" d="M178.78,147.22v19.19l-1-.08V147.22Z"/><path class="cls-18" d="M183.66,147.21v19.48l-1,0V147.21Z"/><path class="cls-18" d="M188.54,147.2v19.56h-1V147.2Z"/><path class="cls-18" d="M193.42,147.19v19.44l-1,0V147.2Z"/><path class="cls-18" d="M198.3,147.19V166.3l-1,.08V147.19Z"/><path class="cls-18" d="M203.18,147.18v18.55l-1,.14V147.18Z"/><path class="cls-18" d="M208.06,147.17v17.72l-1,.2V147.17Z"/><path class="cls-18" d="M212.94,147.17v16.54l-1,.28V147.17Z"/><path class="cls-18" d="M217.82,147.16V162l-1,.42V147.16Z"/><path class="cls-18" d="M222.7,147.15V159a12.64,12.64,0,0,1-1,.83V147.15Z"/><path class="cls-16" d="M224.63,147.25c0,5.76-16.46,10.44-36.77,10.44-2.78,0-5.48-.09-8.08-.25-3.27-.21-6.37-.54-9.24-1-2.57-.39-5-.86-7.11-1.41-.66-.17-1.3-.34-1.91-.52a31.2,31.2,0,0,1-6.7-2.69c-.33-.2-.65-.4-.94-.6-1.8-1.23-2.79-2.58-2.79-4a2.56,2.56,0,0,1,0-.39c.71-5.59,16.89-10.05,36.74-10.05a122,122,0,0,1,13.81.76c.82.09,1.63.2,2.42.31a74.35,74.35,0,0,1,9.36,1.87c.61.17,1.19.34,1.75.52a29.68,29.68,0,0,1,5.15,2.09,11,11,0,0,1,3.31,2.5,4,4,0,0,1,.94,2A2.56,2.56,0,0,1,224.63,147.25Z"/><path class="cls-20" d="M223.66,144.86l-43.88,12.58c-3.27-.21-6.37-.54-9.24-1l49.81-14.1A11,11,0,0,1,223.66,144.86Z"/><path class="cls-20" d="M204.09,137.88l-49.27,14c-.33-.2-.65-.4-.94-.6l47.79-13.67C202.49,137.66,203.3,137.77,204.09,137.88Z"/><path class="cls-20" d="M215.2,140.27l-51.77,14.78c-.66-.17-1.3-.34-1.91-.52l51.93-14.78C214.06,139.92,214.64,140.09,215.2,140.27Z"/><path class="cls-18" d="M217.25,147.25c0,.13,0,.25,0,.38-.71,4.43-13.61,8-29.36,8s-28.65-3.53-29.36-8a2.43,2.43,0,0,1,0-.38c0-4.6,13.19-8.35,29.39-8.35S217.25,142.65,217.25,147.25Z"/><path class="cls-19" d="M217.22,147.63c-.71,4.43-13.61,8-29.36,8h-1.05a96.54,96.54,0,0,1-10-.61,64.7,64.7,0,0,1-8.41-1.48c-.63-.15-1.23-.32-1.81-.49a20.72,20.72,0,0,1-6.15-2.74,6.88,6.88,0,0,1-.89-.75,3.55,3.55,0,0,1-1.08-1.89c.71-4.42,13.61-8,29.36-8,2,0,3.94.05,5.83.16,1,.06,1.9.13,2.83.21a71.13,71.13,0,0,1,10.21,1.58c.64.15,1.26.31,1.85.48a25.21,25.21,0,0,1,5.69,2.25A6.31,6.31,0,0,1,217,147,3,3,0,0,1,217.22,147.63Z"/><path class="cls-17" d="M217,147l-30.22,8.59a96.54,96.54,0,0,1-10-.61l37.43-10.63A6.31,6.31,0,0,1,217,147Z"/><path class="cls-17" d="M196.52,140l-36.05,10.23a6.88,6.88,0,0,1-.89-.75l34.11-9.69C194.65,139.89,195.59,140,196.52,140Z"/><path class="cls-17" d="M208.58,142.1l-40.15,11.4c-.63-.15-1.23-.32-1.81-.49l40.11-11.39C207.37,141.77,208,141.93,208.58,142.1Z"/><path class="cls-18" d="M192,152v1.39h-6.21v-1.32a82.22,82.22,0,0,1-11.3-.88l3.34-2.15a65.93,65.93,0,0,0,10.16.8c2.95,0,4-.17,4-.47,0-1.1-17-.22-17-3.48,0-1.41,3.61-2.59,10.82-2.88v-1.36H192V143a71.94,71.94,0,0,1,8.92.73l-3.12,2.13a61.24,61.24,0,0,0-8.58-.65c-3,0-4,.25-4,.55,0,1.05,17,.18,17,3.4C202.19,150.47,198.76,151.65,192,152Z"/><path class="cls-16" d="M191.77,151.52v1.39h-6.21v-1.33a80.75,80.75,0,0,1-11.3-.87l3.34-2.15a65.83,65.83,0,0,0,10.16.8c3,0,4-.17,4-.47,0-1.1-17-.22-17-3.48,0-1.41,3.61-2.6,10.82-2.88v-1.36h6.21v1.33a71.94,71.94,0,0,1,8.92.73l-3.12,2.13a61.24,61.24,0,0,0-8.58-.65c-3,0-4,.25-4,.55,0,1.05,17,.18,17,3.4C202,150,198.58,151.18,191.77,151.52Z"/><path class="cls-19" d="M261.85,269v.1a4.78,4.78,0,0,1-1.84,3.46,11.43,11.43,0,0,1-1,.79,20.35,20.35,0,0,1-3.67,2l-1,.39a38.36,38.36,0,0,1-3.67,1.24l-1,.27c-1.16.31-2.39.6-3.68.86l-1,.19c-1.17.22-2.4.42-3.67.6l-1,.14c-1.19.15-2.41.29-3.67.4l-1,.09c-1.2.09-2.42.17-3.67.23l-1,0c-1.21.05-2.43.07-3.67.08h-1c-1.24,0-2.47,0-3.68-.07l-1,0c-.91,0-1.82-.1-2.72-.16l-1-.07-1-.08c-1.25-.11-2.48-.24-3.67-.39l-1-.13-2.23-.34-1.44-.25-1-.19c-1.28-.25-2.51-.53-3.67-.83l-.68-.19-.29-.08c-.53-.14-1-.3-1.53-.45-.75-.24-1.47-.49-2.14-.75-.34-.13-.66-.25-1-.39a21.48,21.48,0,0,1-3.26-1.65l-.42-.28c-.16-.11-.33-.22-.48-.34l-.49-.38a5,5,0,0,1-2.16-3.75,2.62,2.62,0,0,1,0-.28v-7.47h69.94V269Z"/><path class="cls-18" d="M195,261.35v12.22c-.16-.11-.33-.22-.48-.34l-.49-.38v-11.5Z"/><path class="cls-18" d="M199.67,261.34v14.55c-.34-.13-.66-.25-1-.39V261.34Z"/><path class="cls-18" d="M204.31,261.34v16l-.68-.19-.29-.08V261.34Z"/><path class="cls-18" d="M209,261.33v17.05l-1-.19V261.33Z"/><path class="cls-18" d="M213.59,261.32V279.1l-1-.13V261.32Z"/><path class="cls-18" d="M218.23,261.32v18.25l-1-.08V261.32Z"/><path class="cls-18" d="M222.87,261.31v18.52l-1,0V261.31Z"/><path class="cls-18" d="M227.52,261.3v18.6h-1V261.3Z"/><path class="cls-18" d="M232.16,261.3v18.48l-1,0V261.3Z"/><path class="cls-18" d="M236.8,261.29v18.17l-1,.09V261.29Z"/><path class="cls-18" d="M241.44,261.28v17.64l-1,.14V261.28Z"/><path class="cls-18" d="M246.08,261.27v16.86l-1,.19v-17Z"/><path class="cls-18" d="M250.73,261.27V277l-1,.27v-16Z"/><path class="cls-18" d="M255.37,261.26v14.11l-1,.39v-14.5Z"/><path class="cls-18" d="M260,261.25v11.31a11.43,11.43,0,0,1-1,.79v-12.1Z"/><path class="cls-16" d="M261.84,261.35c0,5.48-15.65,9.93-35,9.93-2.64,0-5.21-.09-7.68-.24-3.11-.2-6.06-.52-8.8-.93-2.44-.37-4.7-.82-6.76-1.34-.62-.16-1.23-.33-1.81-.5a29.18,29.18,0,0,1-6.37-2.56q-.48-.29-.9-.57c-1.71-1.17-2.65-2.45-2.65-3.79a2.22,2.22,0,0,1,0-.37c.68-5.32,16.06-9.57,34.94-9.57a114.67,114.67,0,0,1,13.13.73l2.31.29a69.8,69.8,0,0,1,8.9,1.79c.58.15,1.13.32,1.67.49a28.42,28.42,0,0,1,4.9,2,10.3,10.3,0,0,1,3.14,2.38,3.68,3.68,0,0,1,.89,1.9A2.22,2.22,0,0,1,261.84,261.35Z"/><path class="cls-20" d="M260.92,259.08l-41.73,12c-3.11-.2-6.06-.52-8.8-.93l47.39-13.41A10.3,10.3,0,0,1,260.92,259.08Z"/><path class="cls-20" d="M242.31,252.43l-46.86,13.28q-.48-.29-.9-.57l45.45-13Z"/><path class="cls-20" d="M252.88,254.71l-49.25,14.06c-.62-.16-1.23-.33-1.81-.5l49.39-14C251.79,254.37,252.34,254.54,252.88,254.71Z"/><path class="cls-18" d="M254.82,261.35a2.19,2.19,0,0,1,0,.36c-.67,4.21-12.94,7.57-27.92,7.57s-27.25-3.36-27.92-7.57a2.19,2.19,0,0,1,0-.36c0-4.38,12.54-7.94,28-7.94S254.82,257,254.82,261.35Z"/><path class="cls-19" d="M254.79,261.71c-.67,4.21-12.94,7.57-27.92,7.57h-1a93,93,0,0,1-9.48-.58,62.78,62.78,0,0,1-8-1.4c-.59-.15-1.17-.31-1.72-.47a19.91,19.91,0,0,1-5.85-2.61,7.78,7.78,0,0,1-.85-.71,3.39,3.39,0,0,1-1-1.8c.67-4.21,12.94-7.57,27.92-7.57,1.9,0,3.75.05,5.54.15.92.05,1.82.12,2.7.2a67.65,67.65,0,0,1,9.71,1.5c.61.15,1.2.3,1.76.46a24,24,0,0,1,5.41,2.14,6,6,0,0,1,2.63,2.52A2.7,2.7,0,0,1,254.79,261.71Z"/><path class="cls-17" d="M254.62,261.11l-28.75,8.17a93,93,0,0,1-9.48-.58L252,258.59A6,6,0,0,1,254.62,261.11Z"/><path class="cls-17" d="M235.11,254.49l-34.29,9.73a7.78,7.78,0,0,1-.85-.71l32.44-9.22C233.33,254.34,234.23,254.41,235.11,254.49Z"/><path class="cls-17" d="M246.58,256.45,208.39,267.3c-.59-.15-1.17-.31-1.72-.47L244.82,256C245.43,256.14,246,256.29,246.58,256.45Z"/><path class="cls-18" d="M230.76,265.85v1.32h-5.9v-1.26a77,77,0,0,1-10.75-.83l3.18-2.05a62,62,0,0,0,9.66.76c2.8,0,3.81-.16,3.81-.45,0-1-16.19-.2-16.19-3.3,0-1.34,3.43-2.47,10.29-2.75V256h5.9v1.27a67.66,67.66,0,0,1,8.49.69l-3,2a58.28,58.28,0,0,0-8.16-.62c-2.88,0-3.81.24-3.81.53,0,1,16.2.16,16.2,3.23C240.51,264.41,237.24,265.53,230.76,265.85Z"/><path class="cls-16" d="M230.59,265.41v1.32h-5.9v-1.26a76.85,76.85,0,0,1-10.75-.83l3.17-2.05a62.28,62.28,0,0,0,9.67.76c2.8,0,3.81-.16,3.81-.45,0-1-16.19-.2-16.19-3.3,0-1.34,3.43-2.47,10.29-2.74v-1.3h5.9v1.27a69.77,69.77,0,0,1,8.49.69l-3,2a58.2,58.2,0,0,0-8.16-.61c-2.89,0-3.81.23-3.81.52,0,1,16.19.16,16.19,3.23C240.33,264,237.07,265.09,230.59,265.41Z"/><path class="cls-19" d="M264.05,256.75v.1a4.78,4.78,0,0,1-1.84,3.46,11.43,11.43,0,0,1-1,.79,19.75,19.75,0,0,1-3.67,2l-1,.4a37.66,37.66,0,0,1-3.68,1.24l-1,.27c-1.15.31-2.38.6-3.67.86l-1,.19c-1.18.22-2.4.42-3.67.6l-1,.14c-1.19.15-2.42.29-3.67.4l-1,.08c-1.2.1-2.43.18-3.67.24l-1,0c-1.21.05-2.43.07-3.68.08h-1c-1.25,0-2.47,0-3.68-.07l-1,0-2.72-.16-.95-.07-1-.08c-1.25-.11-2.48-.24-3.67-.39l-1-.13-2.23-.34-1.44-.25-1-.19c-1.29-.25-2.51-.53-3.68-.84l-.68-.18-.28-.08-1.54-.45c-.75-.24-1.46-.49-2.14-.75l-1-.39a22.3,22.3,0,0,1-3.25-1.65,4.38,4.38,0,0,1-.42-.28,5.85,5.85,0,0,1-.48-.34l-.49-.38a5,5,0,0,1-2.16-3.75,2.62,2.62,0,0,1,0-.28V249.1H264l0,7.75Z"/><path class="cls-18" d="M197.22,249.1v12.22a5.85,5.85,0,0,1-.48-.34l-.49-.38V249.1Z"/><path class="cls-18" d="M201.86,249.09v14.55l-1-.39V249.09Z"/><path class="cls-18" d="M206.5,249.08v16l-.68-.18-.28-.08V249.09Z"/><path class="cls-18" d="M211.15,249.08v17l-1-.19V249.08Z"/><path class="cls-18" d="M215.79,249.07v17.78l-1-.13V249.07Z"/><path class="cls-18" d="M220.43,249.06v18.26l-1-.08V249.07Z"/><path class="cls-18" d="M225.07,249.06v18.52l-1,0V249.06Z"/><path class="cls-18" d="M229.71,249.05v18.6h-1v-18.6Z"/><path class="cls-18" d="M234.36,249v18.49l-1,0V249.05Z"/><path class="cls-18" d="M239,249v18.17l-1,.08V249Z"/><path class="cls-18" d="M243.64,249v17.64l-1,.14V249Z"/><path class="cls-18" d="M248.28,249v16.86l-1,.19V249Z"/><path class="cls-18" d="M252.92,249v15.73l-1,.27V249Z"/><path class="cls-18" d="M257.57,249v14.1l-1,.4V249Z"/><path class="cls-18" d="M262.21,249v11.31a11.43,11.43,0,0,1-1,.79V249Z"/><path class="cls-16" d="M264,249.09c0,5.49-15.66,9.94-35,9.94-2.64,0-5.21-.09-7.68-.25-3.11-.19-6.06-.51-8.8-.92-2.44-.37-4.71-.83-6.76-1.34-.62-.16-1.23-.33-1.82-.5a29.08,29.08,0,0,1-6.36-2.56q-.48-.28-.9-.57c-1.71-1.17-2.65-2.45-2.65-3.8a2.19,2.19,0,0,1,0-.36c.67-5.32,16.06-9.57,34.94-9.57a114.8,114.8,0,0,1,13.13.73l2.31.29a72.43,72.43,0,0,1,8.9,1.78c.57.16,1.13.33,1.67.5a29.27,29.27,0,0,1,4.9,2,10.6,10.6,0,0,1,3.14,2.39,3.72,3.72,0,0,1,.89,1.9A2.19,2.19,0,0,1,264,249.09Z"/><path class="cls-20" d="M263.12,246.83l-41.73,11.95c-3.11-.19-6.06-.51-8.8-.92L260,244.44A10.6,10.6,0,0,1,263.12,246.83Z"/><path class="cls-20" d="M244.51,240.18l-46.86,13.28q-.48-.28-.9-.57l45.45-13Z"/><path class="cls-20" d="M255.08,242.46l-49.25,14.06c-.62-.16-1.23-.33-1.82-.5L253.41,242C254,242.12,254.54,242.29,255.08,242.46Z"/><path class="cls-18" d="M257,249.09a2.22,2.22,0,0,1,0,.37c-.67,4.21-12.94,7.57-27.92,7.57s-27.25-3.36-27.92-7.57a2.22,2.22,0,0,1,0-.37c0-4.37,12.54-7.93,27.95-7.93S257,244.72,257,249.09Z"/><path class="cls-19" d="M257,249.46c-.67,4.21-12.94,7.57-27.92,7.57h-1a92.82,92.82,0,0,1-9.48-.58,64.6,64.6,0,0,1-8-1.4c-.6-.15-1.17-.31-1.72-.47A19.79,19.79,0,0,1,203,252a6.18,6.18,0,0,1-.85-.72,3.27,3.27,0,0,1-1-1.79c.67-4.21,12.94-7.58,27.92-7.58,1.89,0,3.75.06,5.54.16.91.05,1.81.12,2.7.2a67.87,67.87,0,0,1,9.71,1.5c.6.15,1.19.3,1.76.46a24.15,24.15,0,0,1,5.41,2.14,6.05,6.05,0,0,1,2.63,2.52A2.7,2.7,0,0,1,257,249.46Z"/><path class="cls-17" d="M256.82,248.86,228.07,257a92.82,92.82,0,0,1-9.48-.58l35.6-10.11A6.05,6.05,0,0,1,256.82,248.86Z"/><path class="cls-17" d="M237.31,242.24,203,252a6.18,6.18,0,0,1-.85-.72L234.61,242C235.52,242.09,236.42,242.16,237.31,242.24Z"/><path class="cls-17" d="M248.78,244.2l-38.19,10.85c-.6-.15-1.17-.31-1.72-.47L247,243.74C247.62,243.89,248.21,244,248.78,244.2Z"/><path class="cls-18" d="M233,253.6v1.32h-5.9v-1.26a77,77,0,0,1-10.76-.83l3.18-2.05a62.28,62.28,0,0,0,9.67.76c2.8,0,3.81-.16,3.81-.45,0-1-16.19-.2-16.19-3.3,0-1.34,3.43-2.47,10.29-2.75v-1.29H233V245a67.82,67.82,0,0,1,8.49.69l-3,2a56.81,56.81,0,0,0-8.16-.62c-2.89,0-3.81.24-3.81.53,0,1,16.19.16,16.19,3.23C242.7,252.16,239.44,253.28,233,253.6Z"/><path class="cls-16" d="M232.78,253.16v1.32h-5.9v-1.26a77,77,0,0,1-10.75-.83l3.18-2a62.18,62.18,0,0,0,9.67.76c2.8,0,3.8-.16,3.8-.45,0-1-16.19-.2-16.19-3.3,0-1.34,3.43-2.47,10.29-2.75v-1.29h5.9v1.27a67.83,67.83,0,0,1,8.5.69l-3,2a58.28,58.28,0,0,0-8.16-.62c-2.89,0-3.81.24-3.81.53,0,1,16.19.16,16.19,3.23C242.53,251.72,239.27,252.84,232.78,253.16Z"/><path class="cls-19" d="M263.72,244.5a.31.31,0,0,1,0,.1,4.78,4.78,0,0,1-1.84,3.46,11.43,11.43,0,0,1-1,.79,19.75,19.75,0,0,1-3.67,2l-1,.4c-1.12.44-2.35.86-3.68,1.24l-1,.27c-1.16.31-2.38.6-3.67.86l-1,.19c-1.18.22-2.4.42-3.67.6l-1,.13c-1.19.16-2.42.3-3.67.41l-1,.08c-1.2.1-2.43.18-3.67.24l-1,0c-1.21.05-2.43.07-3.68.08h-1c-1.24,0-2.46,0-3.67-.07l-1,0c-.92,0-1.82-.09-2.72-.15l-.95-.07-1-.08c-1.25-.11-2.48-.24-3.67-.39l-1-.13-2.24-.34-1.43-.25-1-.19c-1.29-.25-2.51-.53-3.68-.84l-.68-.18-.29-.08-1.53-.46c-.75-.23-1.46-.48-2.14-.74l-1-.39a21.34,21.34,0,0,1-3.25-1.66l-.42-.27c-.17-.11-.33-.23-.48-.34l-.49-.38a5.06,5.06,0,0,1-2.16-3.75,2.53,2.53,0,0,1,0-.28v-7.47h69.93l0,7.75Z"/><path class="cls-18" d="M196.9,236.85v12.22c-.17-.11-.33-.23-.48-.34l-.49-.38v-11.5Z"/><path class="cls-18" d="M201.54,236.84v14.55l-1-.39V236.84Z"/><path class="cls-18" d="M206.18,236.83v16l-.68-.18-.29-.08V236.84Z"/><path class="cls-18" d="M210.83,236.83v17l-1-.19V236.83Z"/><path class="cls-18" d="M215.47,236.82V254.6l-1-.13V236.82Z"/><path class="cls-18" d="M220.11,236.81v18.26l-1-.08V236.81Z"/><path class="cls-18" d="M224.75,236.81v18.52l-1,0V236.81Z"/><path class="cls-18" d="M229.39,236.8v18.6h-1V236.8Z"/><path class="cls-18" d="M234,236.79v18.49l-1,0V236.79Z"/><path class="cls-18" d="M238.68,236.79V255l-1,.08V236.79Z"/><path class="cls-18" d="M243.32,236.78v17.64l-1,.13V236.78Z"/><path class="cls-18" d="M248,236.77v16.86l-1,.19v-17Z"/><path class="cls-18" d="M252.6,236.76V252.5l-1,.27v-16Z"/><path class="cls-18" d="M257.25,236.76v14.1l-1,.4v-14.5Z"/><path class="cls-18" d="M261.89,236.75v11.31a11.43,11.43,0,0,1-1,.79v-12.1Z"/><path class="cls-16" d="M263.72,236.84c0,5.49-15.66,9.93-35,9.93-2.64,0-5.21-.08-7.68-.24-3.11-.19-6.06-.51-8.8-.92-2.44-.38-4.71-.83-6.76-1.35-.63-.15-1.23-.32-1.82-.49a29.08,29.08,0,0,1-6.36-2.56q-.48-.28-.9-.57c-1.71-1.17-2.65-2.45-2.65-3.8a2.4,2.4,0,0,1,0-.37c.67-5.31,16.06-9.56,34.94-9.56a114.8,114.8,0,0,1,13.13.73c.79.09,1.55.18,2.31.29a70.61,70.61,0,0,1,8.9,1.78l1.67.49a30.11,30.11,0,0,1,4.9,2,10.59,10.59,0,0,1,3.14,2.38,3.8,3.8,0,0,1,.89,1.9A2.4,2.4,0,0,1,263.72,236.84Z"/><path class="cls-20" d="M262.8,234.57l-41.73,12c-3.11-.19-6.06-.51-8.8-.92l47.39-13.42A10.59,10.59,0,0,1,262.8,234.57Z"/><path class="cls-20" d="M244.19,227.93l-46.86,13.28q-.48-.28-.9-.57l45.45-13C242.67,227.73,243.43,227.82,244.19,227.93Z"/><path class="cls-20" d="M254.76,230.2l-49.25,14.06c-.63-.15-1.23-.32-1.82-.49l49.4-14.06Z"/><path class="cls-18" d="M256.7,236.84a2.22,2.22,0,0,1,0,.37c-.67,4.21-12.94,7.57-27.92,7.57s-27.25-3.36-27.92-7.57a2.22,2.22,0,0,1,0-.37c0-4.37,12.54-7.93,27.95-7.93S256.7,232.47,256.7,236.84Z"/><path class="cls-19" d="M256.67,237.21c-.67,4.21-12.94,7.57-27.92,7.57h-1a92.82,92.82,0,0,1-9.48-.58,62.69,62.69,0,0,1-8-1.41c-.6-.15-1.17-.3-1.72-.47a19.55,19.55,0,0,1-5.85-2.6,6.18,6.18,0,0,1-.85-.72,3.27,3.27,0,0,1-1-1.79c.67-4.21,12.93-7.58,27.92-7.58,1.89,0,3.75.06,5.54.16.91.05,1.81.12,2.69.2a67.8,67.8,0,0,1,9.72,1.5c.6.15,1.19.3,1.76.46a24.15,24.15,0,0,1,5.41,2.14,6.05,6.05,0,0,1,2.63,2.52A2.7,2.7,0,0,1,256.67,237.21Z"/><path class="cls-17" d="M256.5,236.61l-28.75,8.17a92.82,92.82,0,0,1-9.48-.58l35.6-10.11A6.05,6.05,0,0,1,256.5,236.61Z"/><path class="cls-17" d="M237,230l-34.28,9.73a6.18,6.18,0,0,1-.85-.72l32.44-9.21C235.2,229.84,236.1,229.91,237,230Z"/><path class="cls-17" d="M248.46,232l-38.19,10.84c-.6-.15-1.17-.3-1.72-.47l38.15-10.83C247.3,231.64,247.89,231.79,248.46,232Z"/><path class="cls-18" d="M232.63,241.35v1.32h-5.89v-1.26a76.79,76.79,0,0,1-10.76-.84l3.18-2a63.43,63.43,0,0,0,9.67.76c2.8,0,3.8-.16,3.8-.45,0-1.05-16.19-.2-16.19-3.3,0-1.35,3.44-2.47,10.3-2.75V231.5h5.89v1.27a67.83,67.83,0,0,1,8.5.69l-3,2a56.81,56.81,0,0,0-8.16-.62c-2.89,0-3.81.24-3.81.52,0,1,16.19.17,16.19,3.24C242.38,239.91,239.12,241,232.63,241.35Z"/><path class="cls-16" d="M232.46,240.91v1.32h-5.9V241a77,77,0,0,1-10.75-.83l3.18-2a62.08,62.08,0,0,0,9.67.76c2.8,0,3.8-.16,3.8-.45,0-1-16.19-.2-16.19-3.3,0-1.34,3.43-2.47,10.29-2.75v-1.29h5.9v1.27a67.83,67.83,0,0,1,8.5.69l-3,2a58.28,58.28,0,0,0-8.16-.62c-2.89,0-3.81.24-3.81.53,0,1,16.19.16,16.19,3.23C242.21,239.47,239,240.59,232.46,240.91Z"/></g></g></g></svg>